<svg xmlns="http://www.w3.org/2000/svg" xmlns:xlink="http://www.w3.org/1999/xlink" version="1.1" x="0px" y="0px"
  viewBox="0 0 100 100" enable-background="new 0 0 100 100" xml:space="preserve">
  <path fill="#f9d10b"
    d="M79.884,52.581l0.019-0.009L71.58,35H74c0.681,0,1.163-0.67,0.949-1.317l-1-3C73.813,30.275,73.432,30,73,30H53v-3  c0-0.552-0.448-1-1-1h-4c-0.552,0-1,0.448-1,1v3H27c-0.431,0-0.813,0.275-0.949,0.684l-1,3C24.836,34.328,25.316,35,26,35h2.42  l-8.323,17.572l0.019,0.009c-0.083,0.176-0.133,0.364-0.105,0.562l0.509,3.565C20.87,59.154,22.998,61,25.47,61h9.062  c2.472,0,4.6-1.846,4.95-4.292l0.509-3.565c0.028-0.197-0.022-0.386-0.105-0.562l0.019-0.009L31.58,35H47v29h-6  c-1.654,0-3,1.346-3,3v1c-1.654,0-3,1.346-3,3v2c0,0.552,0.448,1,1,1h28c0.552,0,1-0.448,1-1v-2c0-1.654-1.346-3-3-3v-1  c0-1.654-1.346-3-3-3h-6V35h15.42l-8.322,17.572l0.019,0.009c-0.083,0.176-0.134,0.364-0.104,0.562l0.508,3.565  C60.87,59.154,62.998,61,65.471,61h9.062c2.472,0,4.6-1.846,4.95-4.292l0.509-3.565C80.018,52.945,79.968,52.756,79.884,52.581z   M30,36.336L37.42,52H22.58L30,36.336z M37.501,56.424C37.291,57.893,36.014,59,34.531,59h-9.063c-1.483,0-2.76-1.107-2.97-2.576  L22.153,54h15.694L37.501,56.424z M27.387,33l0.333-1H47v1H27.387z M63,71v1H37v-1c0-0.551,0.449-1,1-1h24  C62.551,70,63,70.449,63,71z M60,67v1H40v-1c0-0.551,0.449-1,1-1h18C59.551,66,60,66.449,60,67z M49,64V28h2v36H49z M53,32h19.279  l0.332,1H53V32z M77.42,52H62.58L70,36.336L77.42,52z M77.501,56.424C77.291,57.893,76.014,59,74.531,59h-9.063  c-1.482,0-2.76-1.107-2.97-2.576L62.152,54h15.695L77.501,56.424z" />
</svg>
