<svg xmlns="http://www.w3.org/2000/svg" xmlns:xlink="http://www.w3.org/1999/xlink" version="1.1" x="0px" y="0px"
  viewBox="0 0 100 125" style="enable-background:new 0 0 100 100;" xml:space="preserve">
  <path fill="#f9d10b"
    d="M49.9326935,29.7648926c2.7197266,0,4.9316406-2.2119141,4.9316406-4.9311523s-2.2119141-4.9311523-4.9316406-4.9311523  c-2.71875,0-4.9306641,2.2119141-4.9306641,4.9311523S47.2139435,29.7648926,49.9326935,29.7648926z M49.9326935,21.4025879  c1.8925781,0,3.4316406,1.5390625,3.4316406,3.4311523s-1.5390625,3.4311523-3.4316406,3.4311523  c-1.8916016,0-3.4306641-1.5390625-3.4306641-3.4311523S48.0410919,21.4025879,49.9326935,21.4025879z" />
  <path fill="#f9d10b"
    d="M67.4688263,76.3081055v-8.3078613c0-0.0054932-0.0031738-0.0103149-0.0032959-0.0158081  c-0.0014648-0.06604-0.0213013-0.1289673-0.039978-0.192688c-0.0093994-0.0317383-0.0095825-0.0656128-0.0230713-0.0958252  c-0.0238037-0.0535278-0.065918-0.0980835-0.1027222-0.145752c-0.024353-0.0314331-0.0388184-0.0692749-0.0682373-0.0968018  l-6.4912109-6.0830078c-0.0011597-0.0010986-0.0027466-0.0013428-0.0039063-0.0024414  c-1.7573242-1.8956909-5.3903198-2.6276245-6.5404663-2.8156128c-1.1002808-1.9625244-2.0161743-3.6937866-2.1714478-4.2522583  c-0.2128906-0.7675781,0.9833984-4.2734375,2.2138672-7.0825195c0.1220703-0.2763672,0.0654297-0.5991211-0.1435547-0.8178711  l-0.5164795-0.5424805c6.6530151-0.9940796,8.9171753-5.0216064,9.9588623-6.8774414  c0.1484375-0.2636719,0.265625-0.4780273,0.3691406-0.6191406c0.1555786-0.2120361,0.2542114-0.4740601,0.3161011-0.7643433  C77.7729034,34.0505981,74.6059723,6.9804688,74.4629669,5.8249512c-0.0458984-0.3759766-0.3652344-0.6582031-0.7441406-0.6582031  h-9.0830078c-0.4042969,0-0.7363281,0.3208008-0.75,0.7250977l-0.1708374,5.1573486  c-2.9124756-1.7197266-9.84729-2.0361328-13.2695923-2.0836182h-0.9013672  c-3.4138184,0.0474854-10.3468628,0.3638916-13.2593994,2.0834351l-0.1702881-5.1571655  c-0.0136719-0.4042969-0.3457031-0.7250977-0.75-0.7250977h-9.0834942c-0.3789063,0-0.6982422,0.2822266-0.7441406,0.6582031  c-0.1425171,1.1555176-3.3093872,28.2248535,10.2404156,31.7711182c0.0617065,0.2903442,0.1602783,0.5524292,0.3157349,0.7645264  c0.1035156,0.1416016,0.2216797,0.3564453,0.3701172,0.6206055c1.041626,1.8552246,3.3070679,5.8814697,9.9580078,6.8757324  l-0.5166016,0.5422363c-0.2089844,0.2192383-0.265625,0.5419922-0.1435547,0.8188477  c1.2304688,2.8085938,2.4267578,6.3144531,2.2138672,7.0820313c-0.15448,0.5574951-1.0673828,2.2839355-2.170105,4.2520142  c-1.2282104,0.2007446-5.3076782,1.0188599-6.883606,3.2224121l-6.1489258,5.6749878  c-0.1538086,0.1416016-0.2412109,0.3417969-0.2412109,0.5507813v8.4558716  c-0.9732647,0.9326782-4.416502,4.4678955-4.416502,7.7941284c0,4.3945313,6.6704082,10.5830078,21.4999981,10.5830078h0.7714844  c14.8300781,0,21.5-6.1884766,21.5-10.5830078C71.8858185,80.9180908,68.4238434,77.2545776,67.4688263,76.3081055z   M34.030838,69.8448486c2.3947144,2.0340576,7.9533081,5.9053955,15.5834961,5.9053955h0.7714844  c7.6276855,0,13.1853638-3.9371948,15.5830078-6.0094604v9.9854736c-1.663208,2.4311523-6.3255005,7.690979-15.5830078,7.690979  h-0.7714844c-9.3352661,0-13.9349365-5.2174683-15.5834961-7.6670532V69.8448486z M39.3858185,66.0656738  c2.390625,2.3974609,8.140625,3.4345703,10.546875,3.4345703c0.0237427,0,0.0437622-0.0113525,0.0668945-0.0134888  c0.0231323,0.0021362,0.0431519,0.0134888,0.0668945,0.0134888c2.40625,0,8.1572266-1.0371094,10.5478516-3.4345703  c0.5545044-0.5559692,0.8978271-1.1576538,1.0303345-1.7929688l3.9899292,3.739502  c-1.6826172,1.5716553-7.343689,6.2380371-15.2487793,6.2380371h-0.7714844c-7.9966431,0-13.6953735-4.6854248-15.307373-6.1766968  l4.0600586-3.7470703C38.5075226,64.9419556,38.8470001,65.5253906,39.3858185,66.0656738z M73.043045,6.666748  c0.3937988,4.0986938,1.9611816,25.9862671-8.7969971,29.3546753c-0.1842651-1.4564209-0.7875366-3.0563354-1.1062012-3.8265991  L63.46492,19.5119629l1.5146484-3.1899414c0.0008545-0.0018311,0.0005493-0.0037842,0.0014038-0.0056152  c0.0018921-0.0040283,0.0014038-0.0090332,0.0032349-0.0131226c0.0396729-0.0894165,0.0632324-0.1820068,0.0667114-0.2744751  c0.000061-0.0012817,0.0008545-0.0023804,0.0009155-0.0036621l0.3095703-9.3583984H73.043045z M49.5547638,10.4655762h0.8798828  c6.8652344,0.0961914,13.1171875,1.2524414,13.1171875,2.4257813c0,1.1831055-6.2519531,2.5214844-13.1220703,2.8100586  l-0.84375,0.0004883c-6.8759766-0.2871094-13.1386719-1.6264648-13.1386719-2.8105469  C36.4473419,11.7180176,42.7002716,10.5617676,49.5547638,10.4655762z M49.5547638,17.201416h0.890625  c0.0107422,0,0.0205078,0,0.03125-0.0004883c3.3609619-0.1400757,10.1361694-0.6362305,13.1129761-2.3670044l-0.0326538,0.9859009  l-1.5158691,3.1921387c-0.0449219,0.0947266-0.0693359,0.1977539-0.0722656,0.3027344l-0.3271484,12.769043  c-0.5283203,0.6640625-3.1816406,3.4165039-10.7919922,3.4165039h-1.6992188c-7.5361328,0-10.2548828-2.7675781-10.7919922-3.421875  l-0.3271484-12.7636719c-0.0029297-0.1049805-0.0273438-0.2080078-0.0722656-0.3027344l-1.5168457-3.1921997l-0.0325928-0.9859619  C39.3876495,16.5647583,46.1689606,17.0609741,49.5547638,17.201416z M26.9566212,6.666748h7.682127l0.309082,9.3583984  c0.000061,0.0013428,0.0007935,0.0024414,0.0008545,0.0037842c0.0014648,0.0388794,0.0194702,0.0766602,0.0271606,0.1155396  c0.012085,0.0605469,0.0187988,0.1228027,0.0442505,0.1774292c0,0.000061,0,0.000061,0,0.0001221l1.5151367,3.1899414  l0.3250732,12.6830444c-0.3181763,0.7702637-0.9215698,2.3701172-1.1062012,3.826416  C25.0020924,32.6541748,26.5637379,10.7658691,26.9566212,6.666748z M37.7705841,38.2463379  c-0.1855469-0.3305664-0.3378906-0.5957031-0.46875-0.7729492c-0.3154907-0.4313354,0.0253296-2.118042,0.5827637-3.7349854  c1.4093628,1.265564,4.6731567,3.2618408,11.2658691,3.2618408h1.6992188c6.5931396,0,9.8571167-1.9968872,11.2662964-3.2624512  c0.5579224,1.616333,0.8984375,3.3026733,0.5813599,3.7355957c-0.1308594,0.1772461-0.2822266,0.4423828-0.4677734,0.7719727  c-1.1552734,2.0576172-3.5595703,6.3383789-11.84375,6.3383789h-0.7714844  C41.331131,44.5837402,38.9258575,40.3034668,37.7705841,38.2463379z M49.4199982,54.701416  c0.4140625-1.4902344-1.2929688-5.7666016-2.0869141-7.6269531l0.9863281-1.0351563  c0.4206543,0.0231934,0.8439941,0.0444336,1.2949219,0.0444336h0.7714844c0.4510498,0,0.8745728-0.0212402,1.2953491-0.0444336  l0.9849243,1.0351563c-0.7939453,1.8603516-2.5,6.1367188-2.0869141,7.6269531  c0.4316406,1.5517578,4.6796875,8.7050781,5.1298828,9.4541016c0.0009766,0.0029297,0.1445313,0.3544922,0.0019531,0.6679688  c-0.171875,0.3759766-0.6982422,0.5908203-1.1083984,0.7041016c-2.2480469,0.6181641-4.1386719,0.4755859-4.2167969,0.4726563  l-0.8339844,0.0029297c-0.0175781,0.0009766-1.890625,0.1494141-4.1552734-0.4755859  c-0.4052734-0.1123047-0.9257813-0.3232422-1.1025391-0.6943359c-0.1416016-0.2958984-0.0224609-0.6240234-0.0302734-0.6240234  C44.768631,63.3615723,48.9912872,56.248291,49.4199982,54.701416z M44.8180695,60.2908325  c-0.6506348,1.133606-1.3101196,2.2605591-1.8804932,3.2201538c-0.046875,0.0986328-0.4453125,0.9882813-0.0126953,1.9355469  c0.3310547,0.7246094,1.0283203,1.2382813,2.0732422,1.5263672c1.6972656,0.46875,3.1933594,0.546875,3.9951172,0.546875  c0.3876953,0,0.6132813-0.0175781,0.6210938-0.0195313l0.7089844-0.0029297  c0.0859375,0.0078125,2.1611328,0.1708984,4.6777344-0.5244141c1.0449219-0.2880859,1.7431641-0.8017578,2.0742188-1.5263672  c0.4326172-0.9472656,0.0341797-1.8369141-0.0449219-1.9970703c-0.5570679-0.9349976-1.2050171-2.0408325-1.8468628-3.15802  c2.0907593,0.5148315,5.0202637,1.6199951,5.0255737,3.3777466c0.0009766,0.4550781-0.2138672,0.8925781-0.6572266,1.3378906  c-1.9599609,1.9648438-7.2167969,2.9931641-9.4853516,2.9931641c-0.0237427,0-0.0437622,0.0113525-0.0668945,0.0134888  c-0.0231323-0.0021362-0.0431519-0.0134888-0.0668945-0.0134888c-2.2685547,0-7.5244141-1.0283203-9.484375-2.9931641  c-0.4433594-0.4453125-0.6582031-0.8828125-0.6572266-1.3378906C39.796402,61.9108276,42.7273712,60.805481,44.8180695,60.2908325z   M50.3858185,93.333252h-0.7714844c-14.9638672,0-19.9999981-6.2373047-19.9999981-9.0830078  c0-1.7155151,1.2453613-3.617981,2.3748169-4.993042c0.081358,0.1563721,0.2796612,0.5093994,0.5995464,0.9971313  c0.0387573,0.0935059,0.095459,0.177063,0.1663818,0.2470093c1.8241577,2.6723633,6.8968506,8.4158936,16.8592529,8.4158936  h0.7714844c9.9631958,0,15.0358887-5.7444458,16.8596802-8.4165039c0.0703735-0.0695801,0.126709-0.1526489,0.1652832-0.2453613  c0.3766479-0.5740967,0.5784302-0.9534912,0.6278076-1.052124c1.1233521,1.414978,2.347229,3.343811,2.347229,5.0469971  C70.3858185,87.0959473,65.3496857,93.333252,50.3858185,93.333252z" />
</svg>
