<svg xmlns="http://www.w3.org/2000/svg" xmlns:xlink="http://www.w3.org/1999/xlink" version="1.1" x="0px" y="0px"
  viewBox="0 0 100 125" style="enable-background:new 0 0 100 100;" xml:space="preserve">
  <g>
    <path fill="#f9d10b"
      d="M34.1884766,11.7783203l-22.0454102,22.5L12,34.4238281V65.421875l21.7353516,22.3828125h32.0292969L87.5,65.421875   V34.4238281L65.3115234,11.7783203H34.1884766z M78.3442383,49.7919922c0,15.8037109-12.8569336,28.6601563-28.6601563,28.6601563   c-15.8037109,0-28.6606445-12.8564453-28.6606445-28.6601563S33.8803711,21.1308594,49.684082,21.1308594   C65.4873047,21.1308594,78.3442383,33.9882813,78.3442383,49.7919922z M49.684082,20.1308594   c-3.777771,0-7.3890991,0.7175293-10.7150879,2.0109863l-3.8259277-9.3635254h29.2138672l-3.8442993,9.4084473   C57.1553955,20.8650513,53.5049438,20.1308594,49.684082,20.1308594z M38.0407715,22.5147705   c-7.0385132,3.0159912-12.6845703,8.6771851-15.6763916,15.7285156l-8.9925537-3.7907104l20.8512573-21.2810059   L38.0407715,22.5147705z M21.9960327,39.1737671c-1.2695313,3.2991943-1.9725952,6.8771973-1.9725952,10.6182251   c0,3.9098511,0.7677002,7.6417847,2.1484985,11.0629883L13,64.4832764V35.3815308L21.9960327,39.1737671z M22.5618286,61.776062   c3.0369873,6.8458252,8.5859375,12.3377686,15.4763794,15.2910156l-4.2438965,9.362854L13.3809204,65.4078979L22.5618286,61.776062   z M38.96698,77.4403687c3.3265381,1.2939453,6.9385376,2.0117798,10.7171021,2.0117798   c3.8209839,0,7.4715576-0.7342529,10.8289185-2.0560303l4.2646484,9.4085693H34.7223511L38.96698,77.4403687z M61.43927,77.0174561   c6.8540039-2.9708862,12.3703613-8.4559326,15.3867188-15.2857666l9.2930908,3.6762085L65.7056885,86.4299316L61.43927,77.0174561z    M77.213623,60.8096924c1.3693237-3.4089355,2.1306152-7.125061,2.1306152-11.0177002   c0-3.7229004-0.6959229-7.2845459-1.9537354-10.5704346L86.5,35.3815308v29.1017456L77.213623,60.8096924z M77.0228882,38.2908325   c-2.9707642-7.0355835-8.5825806-12.6908569-15.5842896-15.7255859l3.8383179-9.3936768l20.8512573,21.2810059   L77.0228882,38.2908325z" />
    <path fill="#f9d10b"
      d="M49.684082,22.2470703c-15.1879883,0-27.5444336,12.3564453-27.5444336,27.5449219   c0,15.1875,12.3564453,27.5439453,27.5444336,27.5439453s27.5439453-12.3564453,27.5439453-27.5439453   C77.2280273,34.6035156,64.8720703,22.2470703,49.684082,22.2470703z M49.684082,76.3359375   c-14.6367188,0-26.5444336-11.9072266-26.5444336-26.5439453S35.0473633,23.2470703,49.684082,23.2470703   c14.6362305,0,26.5439453,11.9082031,26.5439453,26.5449219S64.3203125,76.3359375,49.684082,76.3359375z" />
    <path fill="#f9d10b"
      d="M49.684082,27.1015625c-12.5117188,0-22.6904297,10.1787109-22.6904297,22.6904297   S37.1723633,72.4824219,49.684082,72.4824219c12.5112305,0,22.6899414-10.1787109,22.6899414-22.6904297   S62.1953125,27.1015625,49.684082,27.1015625z M49.684082,71.4824219c-11.9599609,0-21.6904297-9.7304688-21.6904297-21.6904297   s9.7304688-21.6904297,21.6904297-21.6904297s21.6899414,9.7304688,21.6899414,21.6904297   S61.644043,71.4824219,49.684082,71.4824219z" />
    <path fill="#f9d10b"
      d="M49.684082,29.359375c-11.2670898,0-20.4331055,9.1660156-20.4331055,20.4326172   s9.1660156,20.4326172,20.4331055,20.4326172c11.2666016,0,20.4326172-9.1660156,20.4326172-20.4326172   S60.9506836,29.359375,49.684082,29.359375z M49.684082,69.2246094c-10.715332,0-19.4331055-8.7177734-19.4331055-19.4326172   S38.96875,30.359375,49.684082,30.359375s19.4326172,8.7177734,19.4326172,19.4326172S60.3994141,69.2246094,49.684082,69.2246094z   " />
    <path fill="#f9d10b"
      d="M49.684082,33.5351563c-8.9638672,0-16.2563477,7.2929688-16.2563477,16.2568359   s7.2924805,16.2558594,16.2563477,16.2558594c8.9633789,0,16.2558594-7.2919922,16.2558594-16.2558594   S58.6474609,33.5351563,49.684082,33.5351563z M49.684082,65.0478516c-8.4125977,0-15.2563477-6.84375-15.2563477-15.2558594   c0-8.4130859,6.84375-15.2568359,15.2563477-15.2568359c8.4121094,0,15.2558594,6.84375,15.2558594,15.2568359   C64.9399414,58.2041016,58.0961914,65.0478516,49.684082,65.0478516z" />
    <path fill="#f9d10b"
      d="M57.5810547,41.2207031c-0.3183594-0.1650391-0.9614258-0.4882813-1.6669922-0.7851563   c0.8535156-0.1455078,1.1225586-0.2470703,1.3071289-0.5400391C57.4077148,39.5996094,57.3164063,39.2949219,57.2275391,39   c-0.3149414-1.0507813-1.9140625-1.2060547-2.0957031-1.2197266c-0.0810547-0.0078125-0.1630859,0.0068359-0.237793,0.0390625   c-0.3583984,0.1552734-0.7182617,0.3027344-1.0727539,0.4404297c0.1176758-0.140625,0.152832-0.3417969,0.0737305-0.5214844   c-0.1113281-0.2529297-0.4033203-0.3671875-0.6591797-0.2568359c-1.6762695,0.7392578-3.546875,0.1757813-3.5654297,0.1689453   c-0.1298828-0.0400391-0.2739258-0.0263672-0.3930664,0.0410156c-0.0883789,0.0498047-0.8657227,0.5048828-0.9584961,1.2382813   c-0.0351563,0.2744141,0.0141602,0.6884766,0.4458008,1.1015625c0.1899414,0.1816406,0.4799805,0.2753906,0.8393555,0.3017578   c-0.9785156,0.2363281-1.8671875,0.7021484-2.0419922,0.796875c-0.9980469,0.6367188-2.1381836,1.3427734-2.2973633,1.4140625   c-0.059082,0.0195313-0.2143555,0.0820313-0.418457,0.1660156c0.0952148-0.1972656,0.1904297-0.5058594,0.0605469-0.8007813   C44.8461914,41.7714844,44.6860352,41.5322266,44.3833008,41.5c-0.1977539-0.1220703-0.7006836-0.8310547-1.2075195-1.6376953   c0.0195313,0.0205078,0.0371094,0.0439453,0.0522461,0.0683594c0.3144531,0.5146484,0.8798828,1.0683594,1.2075195,1.3671875   c0.1557617,0.1816406,0.2978516,0.2626953,0.3588867,0.2910156c0.2275391,0.109375,0.4990234,0.03125,0.6352539-0.1806641   s0.09375-0.4912109-0.0986328-0.6533203c-0.0024414-0.0019531-0.0620117-0.0527344-0.1557617-0.1367188   c-0.137207-0.1787109-0.3950195-0.6875-0.3071289-1.9091797c0.0307617-0.4257813,0.1630859-0.7167969,0.4042969-0.890625   c0.425293-0.3046875,1.1381836-0.2099609,1.3779297-0.1484375c0.0317383,0.0087891,0.065918,0.0136719,0.0991211,0.015625   c0.0366211,0.0019531,0.0634766,0.0117188,0.1005859,0.0546875c0.1552734,0.1816406,0.2319336,0.671875,0.1826172,1.1650391   c-0.0498047,0.4941406-0.5175781,0.8271484-0.5351563,0.8398438c-0.2275391,0.1533203-0.2890625,0.4619141-0.1362305,0.6914063   c0.152832,0.2285156,0.4614258,0.2910156,0.6933594,0.1386719c0.0356445-0.0234375,0.875-0.59375,0.9731445-1.5703125   c0.0297852-0.2998047,0.0883789-1.3232422-0.4179688-1.9150391c-0.1982422-0.2314453-0.4570313-0.3691406-0.7514648-0.3984375   c-0.2646484-0.0625-1.3481445-0.2695313-2.1635742,0.3115234c-0.4941406,0.3515625-0.7709961,0.9013672-0.8237305,1.6337891   c-0.0126953,0.1708984-0.019043,0.3330078-0.0205078,0.4853516c-0.6430664-0.6191406-1.7080078-0.5029297-1.7597656-0.4960938   c-0.1665039,0.0195313-0.3125,0.1210938-0.3876953,0.2705078c-0.0756836,0.1503906-0.0712891,0.328125,0.012207,0.4736328   C42.6455078,41,43.2250977,41.7617188,43.5922852,42.1230469c-0.9448242,0.0488281-1.9082031,0.2070313-2.2426758,0.6298828   c-0.1396484,0.1767578-0.1889648,0.3916016-0.1386719,0.6074219c0.2250977,0.9541016,1.644043,1.0830078,1.9262695,1.0986328   c0.0092773,0.0009766,0.019043,0.0009766,0.0283203,0.0009766c0.0673828,0,0.1337891-0.0136719,0.1962891-0.0400391   c0.9736328-0.4150391,2.0825195-0.8808594,2.21875-0.9267578c0.1889648-0.0634766,1.0366211-0.5742188,2.487793-1.5009766   c0.5314941-0.2877808,1.6229248-0.7410889,2.4285278-0.7929077c0.0076904,0.0620117,0.0255737,0.1237183,0.0578003,0.1815796   l0.3891602,0.7001953c-0.3100586,0.28125-0.9550781,0.6992188-1.8603516,0.3886719   c-0.2587891-0.0869141-0.5449219,0.0507813-0.6342773,0.3125c-0.0893555,0.2607422,0.050293,0.5449219,0.3120117,0.6347656   c0.3334961,0.1132813,0.6499023,0.1621094,0.9458008,0.1621094c1.1103516-0.0009766,1.9282227-0.6816406,2.2543945-1.1328125   c0.1137695-0.1572266,0.1259766-0.3662109,0.0317383-0.5361328l-0.1647949-0.2965088   c0.9576416,0.4595337,1.8469238,0.8795166,1.8469238,0.8795166c0.0698242,0.0322266,0.1435547,0.0478516,0.2236328,0.0478516   l1.5898438-0.0332031c0.1293945,0.1982422,0.2236328,0.4277344,0.1870117,0.53125   c-0.097168,0.2714844-0.0668945,0.5400391,0.0849609,0.7548828c0.2871094,0.4082031,0.8862305,0.4394531,1.0629883,0.4394531   c0.2285156,0,0.4282227-0.1552734,0.484375-0.3769531l0.5268555-2.0693359   C57.8925781,41.5625,57.7871094,41.3271484,57.5810547,41.2207031z M43.0834961,43.4511719   c-0.2646484-0.0273438-0.5097656-0.0957031-0.6772461-0.1669922c0.3344727-0.0810547,0.8876953-0.1464844,1.4711914-0.1689453   C43.5585938,43.2490234,43.2617188,43.375,43.0834961,43.4511719z M49.4560547,39.3085938   c-0.0722656-0.0683594-0.1557617-0.1679688-0.1455078-0.2519531c0.0146484-0.1191406,0.1567383-0.2734375,0.3012695-0.3867188   c0.4711914,0.1132813,1.5732422,0.3144531,2.7963867,0.0976563C50.9194336,39.2578125,49.7275391,39.4921875,49.4560547,39.3085938   z M56.6098633,42.546875c-0.1425781-0.4570313-0.4511719-0.8173828-0.503418-0.8759766   c-0.0952148-0.1074219-0.2314453-0.1679688-0.3740234-0.1679688c-0.003418,0-0.0068359,0-0.0102539,0l-1.7260742,0.0361328   c-0.3408203-0.1611328-1.4404297-0.6826172-2.4101563-1.1523438c-0.1914063-0.0927734-0.4033203-0.1474609-0.6264648-0.1728516   c1.362793-0.2695313,3.0209961-0.9130859,4.2104492-1.4248047c0.440918,0.0595703,1.0258789,0.2529297,1.1079102,0.5253906   c0.0029297,0.0097656,0.0058594,0.0195313,0.0087891,0.0283203c-0.2666016,0.0683594-0.7998047,0.1503906-1.4379883,0.2490234   c-0.3793945,0.0595703-0.8295898,0.1289063-1.362793,0.2158203c-0.0273438,0.0029297-0.0537109,0.0078125-0.0791016,0.0136719   c-0.2646484,0.0566406-0.4360352,0.3154297-0.3852539,0.5810547c0.0507813,0.2666016,0.3066406,0.4482422,0.5717773,0.4003906   c0.0219727-0.0029297,0.0439453-0.0068359,0.065918-0.0107422c0.4521484-0.0351563,1.8613281,0.5205078,3.1079102,1.1367188   L56.6098633,42.546875z" />
    <path fill="#f9d10b"
      d="M57.5810547,50.2509766c-0.3183594-0.1650391-0.9614258-0.4882813-1.6669922-0.7851563   c0.8535156-0.1455078,1.1225586-0.2470703,1.3071289-0.5400391c0.1865234-0.2958984,0.0952148-0.6005859,0.0063477-0.8955078   c-0.3149414-1.0507813-1.9140625-1.2060547-2.0957031-1.2197266c-0.0810547-0.0078125-0.1630859,0.0068359-0.237793,0.0390625   c-0.3583984,0.1552734-0.7182617,0.3027344-1.0727539,0.4404297c0.1176758-0.140625,0.152832-0.3417969,0.0737305-0.5214844   c-0.1113281-0.2529297-0.4033203-0.3662109-0.6591797-0.2568359c-1.6762695,0.7402344-3.546875,0.1757813-3.5654297,0.1689453   c-0.1298828-0.0400391-0.2739258-0.0263672-0.3930664,0.0410156c-0.0883789,0.0498047-0.8657227,0.5048828-0.9584961,1.2382813   c-0.0351563,0.2744141,0.0141602,0.6884766,0.4458008,1.1015625c0.1899414,0.1816406,0.4799805,0.2753906,0.8393555,0.3017578   c-0.9785156,0.2363281-1.8671875,0.7021484-2.0419922,0.796875c-0.9980469,0.6367188-2.1381836,1.3427734-2.2973633,1.4140625   c-0.059082,0.0195313-0.2143555,0.0820313-0.418457,0.1660156c0.0952148-0.1972656,0.1904297-0.5058594,0.0605469-0.8007813   c-0.0605469-0.1376953-0.2207031-0.3769531-0.5234375-0.4091797c-0.1977539-0.1220703-0.7006836-0.8310547-1.2075195-1.6376953   c0.0195313,0.0205078,0.0371094,0.0439453,0.0522461,0.0683594c0.3144531,0.5146484,0.8798828,1.0683594,1.2075195,1.3671875   c0.1557617,0.1816406,0.2978516,0.2626953,0.3588867,0.2910156c0.2275391,0.109375,0.4990234,0.03125,0.6352539-0.1806641   s0.09375-0.4912109-0.0986328-0.6533203c-0.0024414-0.0019531-0.0620117-0.0527344-0.1557617-0.1367188   c-0.137207-0.1787109-0.3950195-0.6875-0.3071289-1.9091797c0.0307617-0.4257813,0.1630859-0.7167969,0.4042969-0.890625   c0.425293-0.3046875,1.1381836-0.2099609,1.3779297-0.1484375c0.0317383,0.0087891,0.065918,0.0136719,0.0991211,0.015625   c0.0366211,0.0019531,0.0634766,0.0117188,0.1005859,0.0546875c0.1552734,0.1816406,0.2319336,0.671875,0.1826172,1.1650391   c-0.0498047,0.4941406-0.5175781,0.8271484-0.5351563,0.8398438c-0.2275391,0.1533203-0.2890625,0.4619141-0.1362305,0.6914063   c0.152832,0.2285156,0.4614258,0.2900391,0.6933594,0.1386719c0.0356445-0.0234375,0.875-0.59375,0.9731445-1.5703125   c0.0297852-0.2998047,0.0883789-1.3232422-0.4179688-1.9150391c-0.1982422-0.2314453-0.4570313-0.3691406-0.7514648-0.3984375   c-0.2646484-0.0625-1.3481445-0.2705078-2.1635742,0.3115234c-0.4941406,0.3515625-0.7709961,0.9013672-0.8237305,1.6337891   C43.8583984,47.8378906,43.8520508,48,43.8505859,48.1523438c-0.6430664-0.6191406-1.7080078-0.5019531-1.7597656-0.4960938   c-0.1665039,0.0195313-0.3125,0.1210938-0.3876953,0.2705078c-0.0756836,0.1503906-0.0712891,0.328125,0.012207,0.4736328   c0.9301758,1.6298828,1.5097656,2.3916016,1.8769531,2.7529297c-0.9448242,0.0488281-1.9082031,0.2070313-2.2426758,0.6298828   c-0.1396484,0.1767578-0.1889648,0.3916016-0.1386719,0.6074219c0.2250977,0.9541016,1.644043,1.0830078,1.9262695,1.0986328   c0.0092773,0.0009766,0.019043,0.0009766,0.0283203,0.0009766c0.0673828,0,0.1337891-0.0136719,0.1962891-0.0400391   c0.9736328-0.4150391,2.0825195-0.8808594,2.21875-0.9267578c0.1889648-0.0634766,1.0366211-0.5742188,2.487793-1.5009766   c0.5314331-0.2877808,1.6226807-0.7415771,2.4283447-0.793335c0.0076294,0.0621338,0.0256958,0.1239624,0.0579834,0.1820068   l0.3891602,0.7001953c-0.3100586,0.28125-0.9550781,0.6982422-1.8603516,0.3886719   c-0.2587891-0.0849609-0.5449219,0.0507813-0.6342773,0.3125c-0.0893555,0.2607422,0.050293,0.5449219,0.3120117,0.6347656   c0.3334961,0.1132813,0.6499023,0.1621094,0.9458008,0.1621094c1.1103516-0.0009766,1.9282227-0.6816406,2.2543945-1.1328125   c0.1137695-0.1572266,0.1259766-0.3662109,0.0317383-0.5361328l-0.1647949-0.2965088   c0.9576416,0.4595337,1.8469238,0.8795166,1.8469238,0.8795166c0.0698242,0.0322266,0.1435547,0.0439453,0.2236328,0.0478516   l1.5898438-0.0332031c0.1293945,0.1982422,0.2236328,0.4277344,0.1870117,0.53125   c-0.097168,0.2714844-0.0668945,0.5400391,0.0849609,0.7548828c0.2871094,0.4082031,0.8862305,0.4394531,1.0629883,0.4394531   c0.2285156,0,0.4282227-0.1552734,0.484375-0.3769531l0.5268555-2.0693359   C57.8925781,50.5927734,57.7871094,50.3574219,57.5810547,50.2509766z M43.0834961,52.4814453   c-0.2646484-0.0273438-0.5097656-0.0957031-0.6772461-0.1669922c0.3344727-0.0810547,0.8876953-0.1464844,1.4711914-0.1689453   C43.5585938,52.2792969,43.2617188,52.4052734,43.0834961,52.4814453z M49.4560547,48.3388672   c-0.0722656-0.0683594-0.1557617-0.1679688-0.1455078-0.2519531c0.0146484-0.1191406,0.1567383-0.2734375,0.3012695-0.3867188   c0.4711914,0.1132813,1.5732422,0.3144531,2.7963867,0.0976563C50.9194336,48.2871094,49.7275391,48.5224609,49.4560547,48.3388672   z M56.6098633,51.5771484c-0.1425781-0.4570313-0.4511719-0.8173828-0.503418-0.8759766   C56.0112305,50.59375,55.875,50.5332031,55.7324219,50.5332031c-0.003418,0-0.0068359,0-0.0102539,0l-1.7260742,0.0361328   c-0.3408203-0.1611328-1.4404297-0.6826172-2.4101563-1.1523438c-0.1914063-0.0927734-0.4033203-0.1474609-0.6264648-0.1728516   c1.362793-0.2695313,3.0209961-0.9130859,4.2104492-1.4248047c0.440918,0.0595703,1.0258789,0.2529297,1.1079102,0.5253906   c0.0029297,0.0097656,0.0058594,0.0195313,0.0087891,0.0283203c-0.2666016,0.0683594-0.7998047,0.1503906-1.4379883,0.2490234   c-0.3793945,0.0595703-0.8295898,0.1289063-1.362793,0.2158203c-0.0273438,0.0029297-0.0537109,0.0078125-0.0791016,0.0136719   c-0.2646484,0.0566406-0.4360352,0.3154297-0.3852539,0.5810547c0.0507813,0.2666016,0.3066406,0.4472656,0.5717773,0.4003906   c0.0219727-0.0029297,0.0439453-0.0068359,0.065918-0.0107422c0.4521484-0.0273438,1.8613281,0.5205078,3.1079102,1.1367188   L56.6098633,51.5771484z" />
    <path fill="#f9d10b"
      d="M57.5810547,59.28125c-0.3178711-0.1650391-0.9609375-0.4882813-1.6665039-0.7851563   c0.8530273-0.1455078,1.1220703-0.2470703,1.3066406-0.5390625c0.1865234-0.2958984,0.0952148-0.6005859,0.0063477-0.8964844   c-0.3149414-1.0507813-1.9140625-1.2060547-2.0957031-1.2197266c-0.0810547-0.0078125-0.1630859,0.0068359-0.237793,0.0390625   c-0.3583984,0.1552734-0.7182617,0.3027344-1.0727539,0.4404297c0.1176758-0.140625,0.152832-0.3417969,0.0737305-0.5214844   c-0.1113281-0.2529297-0.4033203-0.3671875-0.6591797-0.2568359c-1.6762695,0.7392578-3.546875,0.1757813-3.5654297,0.1689453   c-0.1298828-0.0390625-0.2739258-0.0263672-0.3930664,0.0410156c-0.0883789,0.0498047-0.8657227,0.5048828-0.9584961,1.2382813   c-0.0351563,0.2744141,0.0141602,0.6884766,0.4458008,1.1015625c0.1899414,0.1816406,0.4799805,0.2753906,0.8393555,0.3017578   c-0.9785156,0.2363281-1.8671875,0.7021484-2.0419922,0.796875c-0.9980469,0.6367188-2.1381836,1.3427734-2.2993164,1.4150391   C45.2041016,60.625,45.0493164,60.6875,44.8461914,60.7705078c0.0947266-0.1962891,0.1904297-0.5058594,0.0605469-0.8007813   c-0.0605469-0.1376953-0.2207031-0.3769531-0.5234375-0.4091797c-0.1977539-0.1220703-0.7006836-0.8310547-1.2075195-1.6376953   c0.0195313,0.0205078,0.0371094,0.0439453,0.0522461,0.0683594c0.3144531,0.5146484,0.8798828,1.0683594,1.2075195,1.3671875   c0.1557617,0.1816406,0.2978516,0.2626953,0.3588867,0.2910156c0.2275391,0.1103516,0.4990234,0.03125,0.6352539-0.1806641   s0.09375-0.4912109-0.0986328-0.6533203c-0.0024414-0.0019531-0.0620117-0.0527344-0.1557617-0.1367188   c-0.137207-0.1787109-0.3950195-0.6875-0.3071289-1.9091797c0.0307617-0.4257813,0.1630859-0.7167969,0.4042969-0.890625   c0.425293-0.3046875,1.1381836-0.2099609,1.3779297-0.1484375c0.0317383,0.0087891,0.065918,0.0136719,0.0991211,0.015625   c0.0366211,0.0019531,0.0634766,0.0117188,0.1005859,0.0546875c0.1552734,0.1816406,0.2319336,0.671875,0.1826172,1.1650391   c-0.0498047,0.4941406-0.5175781,0.8271484-0.5351563,0.8398438c-0.2275391,0.1533203-0.2890625,0.4619141-0.1362305,0.6914063   s0.4614258,0.2900391,0.6933594,0.1386719c0.0356445-0.0234375,0.875-0.59375,0.9731445-1.5703125   c0.0297852-0.2998047,0.0883789-1.3232422-0.4179688-1.9150391c-0.1982422-0.2314453-0.4570313-0.3691406-0.7514648-0.3984375   c-0.2646484-0.0625-1.3481445-0.2695313-2.1635742,0.3115234c-0.4941406,0.3515625-0.7709961,0.9013672-0.8237305,1.6337891   c-0.0126953,0.1708984-0.019043,0.3330078-0.0205078,0.4853516c-0.6430664-0.6201172-1.7080078-0.5029297-1.7597656-0.4960938   c-0.1665039,0.0195313-0.3125,0.1210938-0.3876953,0.2705078c-0.0756836,0.1503906-0.0712891,0.328125,0.012207,0.4736328   c0.9301758,1.6298828,1.5097656,2.3916016,1.8769531,2.7529297c-0.9448242,0.0488281-1.9082031,0.2070313-2.2426758,0.6298828   c-0.1396484,0.1767578-0.1889648,0.3916016-0.1386719,0.6074219c0.2250977,0.9541016,1.644043,1.0830078,1.9262695,1.0986328   c0.0092773,0.0009766,0.019043,0.0009766,0.0283203,0.0009766c0.0673828,0,0.1337891-0.0136719,0.1958008-0.0400391   c0.9765625-0.4160156,2.0869141-0.8818359,2.2192383-0.9267578c0.1889648-0.0634766,1.0366211-0.5742188,2.487793-1.5009766   c0.5314331-0.2877808,1.6226807-0.7415771,2.4283447-0.793335c0.0076294,0.0621338,0.0256958,0.1239624,0.0579834,0.1820068   l0.3891602,0.7001953c-0.3100586,0.28125-0.9550781,0.6982422-1.8603516,0.3886719   c-0.2587891-0.0859375-0.5449219,0.0507813-0.6342773,0.3125c-0.0893555,0.2607422,0.050293,0.5449219,0.3120117,0.6347656   c0.3334961,0.1132813,0.6499023,0.1621094,0.9458008,0.1621094c1.1103516-0.0009766,1.9282227-0.6816406,2.2543945-1.1328125   c0.1137695-0.1572266,0.1259766-0.3662109,0.0317383-0.5361328l-0.1647949-0.2965088   c0.9576416,0.4595337,1.8469238,0.8795166,1.8469238,0.8795166c0.0698242,0.0322266,0.1435547,0.0400391,0.2236328,0.0478516   l1.5898438-0.0332031c0.1293945,0.1982422,0.2236328,0.4277344,0.1865234,0.53125   c-0.0966797,0.2724609-0.0664063,0.5410156,0.0854492,0.7558594c0.2875977,0.4082031,0.8862305,0.4394531,1.0629883,0.4394531   c0.2285156,0,0.4282227-0.1552734,0.484375-0.3769531l0.5268555-2.0703125   C57.8925781,59.6230469,57.7871094,59.3876953,57.5810547,59.28125z M43.0834961,61.5117188   c-0.2646484-0.0273438-0.5097656-0.0957031-0.6772461-0.1669922c0.3349609-0.0810547,0.8881836-0.1464844,1.472168-0.1689453   C43.559082,61.3095703,43.262207,61.4365234,43.0834961,61.5117188z M49.4560547,57.3691406   c-0.0722656-0.0683594-0.1557617-0.1679688-0.1455078-0.2519531c0.0146484-0.1191406,0.1567383-0.2734375,0.3012695-0.3867188   c0.4711914,0.1132813,1.5732422,0.3144531,2.7963867,0.0976563C50.9194336,57.3173828,49.7275391,57.5527344,49.4560547,57.3691406   z M56.6098633,60.6074219c-0.1425781-0.4570313-0.4511719-0.8173828-0.503418-0.8759766   c-0.0952148-0.1074219-0.2314453-0.1679688-0.3740234-0.1679688c-0.003418,0-0.0068359,0-0.0102539,0l-1.7260742,0.0361328   c-0.3408203-0.1611328-1.4404297-0.6826172-2.4101563-1.1523438c-0.1914063-0.0927734-0.4033203-0.1474609-0.6264648-0.1728516   c1.362793-0.2695313,3.0209961-0.9130859,4.2104492-1.4248047c0.440918,0.0595703,1.0258789,0.2529297,1.1079102,0.5253906   c0.0029297,0.0097656,0.0058594,0.0195313,0.0087891,0.0283203c-0.265625,0.0683594-0.796875,0.1503906-1.4331055,0.2490234   c-0.3798828,0.0585938-0.8320313,0.1289063-1.3676758,0.2158203c-0.0273438,0.0029297-0.0537109,0.0078125-0.0791016,0.0136719   c-0.2646484,0.0566406-0.4360352,0.3154297-0.3852539,0.5810547c0.0507813,0.2666016,0.3066406,0.4511719,0.5717773,0.4003906   c0.0219727-0.0029297,0.0439453-0.0068359,0.065918-0.0107422c0.4521484-0.0341797,1.8613281,0.5205078,3.1079102,1.1367188   L56.6098633,60.6074219z" />
  </g>
</svg>
