<svg xmlns="http://www.w3.org/2000/svg" xmlns:xlink="http://www.w3.org/1999/xlink" version="1.1" x="0px" y="0px"
  viewBox="0 0 100 125" style="enable-background:new 0 0 100 100;" xml:space="preserve">
  <g>
    <path fill="#f9d10b"
      d="M72.0712891,27.0390625c-2.7316284-1.1504517-5.5350952,0.1506348-6.5866089,0.7438965   c-0.5302124-0.649231-1.8786011-1.8022461-5.1258545-2.6658936c0.0510254-0.1119385,0.0755005-0.2338257,0.0357056-0.3553467   l-0.4360352-1.3339844c-0.0249023-0.0761719-0.0678711-0.1455078-0.125-0.2011719   c-0.0734863-0.0725098-1.3200073-1.2525635-4.4176025-1.9981689c0.5001221-0.3851318,0.8763428-0.9473267,0.8360596-1.7528076   C56.159668,17.625,54.0825195,16.8730469,53.6875,16.7460938c-0.9052734-0.5117188-2.3793945-1.3642578-2.5849609-1.5107422   c-0.0625-0.1210938-0.0537109-0.5478516,0.012207-0.9726563c0.5566406-0.2724609,1.7919922-0.9882813,1.9882813-2.0449219   c0.0766602-0.4121094,0.0224609-1.0429688-0.671875-1.7050781c-1.5126953-1.4414063-0.5673828-3.7197266-0.5263672-3.8154297   c0.0522461-0.1220703,0.0537109-0.2607422,0.0039063-0.3837891c-0.0493164-0.1230469-0.1455078-0.2216797-0.2675781-0.2734375   L50.151001,5.4056396c-0.0961914-0.0755615-0.2140503-0.1152954-0.3374634-0.1075439   c-0.1238403-0.0077515-0.2421265,0.0321045-0.3382568,0.1080933l-1.4884644,0.6338501   c-0.1220703,0.0517578-0.2182617,0.1503906-0.2675781,0.2734375c-0.0498047,0.1230469-0.0483398,0.2617188,0.0039063,0.3837891   c0.0410156,0.0957031,0.9863281,2.3740234-0.5268555,3.8154297c-0.6943359,0.6621094-0.7485352,1.2929688-0.671875,1.7050781   c0.1962891,1.0576172,1.4321289,1.7724609,1.9892578,2.0449219c0.0649414,0.4199219,0.0795898,0.8457031,0.0541992,0.9257813   c-0.2475586,0.1923828-1.7226563,1.0458984-2.6279297,1.5576172c-0.3950195,0.1269531-2.4716797,0.8789063-2.5644531,2.7285156   c-0.0402832,0.8060303,0.3359985,1.3684692,0.8363037,1.7537842c-3.0974121,0.7456055-4.3438721,1.9256592-4.4173584,1.9981689   c-0.0571289,0.0556641-0.1000977,0.125-0.125,0.2011719l-0.4360352,1.3339844   c-0.0397339,0.121521-0.0153809,0.2434082,0.0356445,0.3552856c-3.2479248,0.8637695-4.5963745,2.0170898-5.1264648,2.6662598   c-1.0521851-0.5929565-3.8572388-1.8939819-6.5864258-0.7442017c-1.2104492,0.5097656-2.171875,1.5068359-2.8583984,2.9658203   c-0.8022461,1.7021484-0.9902344,3.7304688-0.5297852,5.7128906c0.4306641,1.8554688,0.9057617,3.1914063,1.4130859,3.9716797   c1.0390625,1.5976563,4.4819336,3.5292969,5.2177734,3.9306641l0.9287109,1.7021484   c0.1181641,0.2167969,0.3754883,0.3144531,0.6079102,0.2314453c0.0158691-0.0067139,1.6216431-0.5454712,2.6379395,0.1832275   c1.1491699,1.6574707,1.1953735,4.3721924,1.1938477,4.8450317c-0.4073486,1.2385864-1.0757446,2.7124634-1.4094238,2.897522   c-0.2260742,0.125-0.4418945,0.3515625-0.6796875,0.7109375c-1.1020508,1.6699219-1.2939453,3.8515625-0.5126953,5.8369141   c0.46875,1.1884766,1.0175781,2.0859375,1.6318359,2.6679688c1.5288086,1.4511719,6.206543,3.1083984,7.2402344,3.4628906   c0.159668,0.3486328,0.2641602,0.7734375,0.1782227,0.9130859c-0.1196289,0.1943359-0.9516602,0.5654297-1.730957,0.7753906   l-2.2915039,0.5419922c-0.1479492,0.0351563-0.2719727,0.1347656-0.3369141,0.2724609l-0.7011719,1.4853516L36.8447266,71.53125   c-0.4384766,0.2041016-1.4765625,0.7724609-1.7172852,1.6513672c-0.4428711,0.0371094-1.0053711,0.1601563-1.1435547,0.5771484   c-0.015625,0.0478516-0.0244141,0.0976563-0.0253906,0.1484375l-0.0419922,2.375   c-0.0024414,0.1367188,0.0512695,0.2675781,0.1484375,0.3642578c0.09375,0.0927734,0.2202148,0.1445313,0.3515625,0.1445313   c0.0043945,0,0.0092773,0,0.0136719,0l0.6417236-0.0177002c-0.010437,0.034668-0.0261841,0.0669556-0.0289307,0.1046143   c-0.1225586,1.6259766-0.6572266,4.4833984-1.5693359,5.2353516c-1.2805176,1.0543823-1.916687,2.4014893-2.0948486,2.8244019   c-0.4484863,0.3574219-1.9656372,1.6965332-1.8325806,3.1923828l-1.1165161,4.7976685   c-0.0571289,0.2451172,0.0766602,0.4941406,0.3120117,0.5820313c0.1570435,0.0581665,4.0227661,1.4257813,20.8810425,1.4462891   c0.0016479,0,0.0030518,0.0009766,0.0046997,0.0009766c0.0635986,0,0.1230469-0.0004272,0.1862793-0.0004883   C49.8769531,94.9575806,49.9364014,94.9580078,50,94.9580078c0.0016479,0,0.0030518-0.0009766,0.0046997-0.0009766   c16.8587646-0.0205078,20.723999-1.3881226,20.8810425-1.4462891c0.2353516-0.0878906,0.3691406-0.3369141,0.3120117-0.5820313   l-1.1165161-4.7976074c0.1323853-1.4962769-1.3841553-2.835083-1.8325806-3.1924438   c-0.1781616-0.4229126-0.8143311-1.7700195-2.0948486-2.8244019c-1.0253906-0.8447266-1.4804688-4.0654297-1.5693359-5.2353516   c-0.0028687-0.0376587-0.0189819-0.0699463-0.0296631-0.1046143l0.6424561,0.0177002c0.0043945,0,0.0092773,0,0.0136719,0   c0.1313477,0,0.2578125-0.0517578,0.3515625-0.1445313c0.097168-0.0957031,0.1508789-0.2275391,0.1484375-0.3642578   l-0.0415039-2.375c-0.0009766-0.0507813-0.0097656-0.1015625-0.0258789-0.1494141   c-0.1386719-0.4160156-0.7006836-0.5390625-1.1430664-0.5761719c-0.2407227-0.8789063-1.2792969-1.4472656-1.7172852-1.6513672   l-0.7036133-1.3701172l-0.7080078-1.5c-0.0649414-0.1367188-0.1889648-0.2373047-0.3369141-0.2724609l-2.277832-0.5390625   c-0.793457-0.2119141-1.625-0.5839844-1.7451172-0.7792969c-0.0859375-0.1386719,0.0185547-0.5634766,0.1782227-0.9121094   c1.0336914-0.3544922,5.7109375-2.0117188,7.2397461-3.4619141c0.6142578-0.5820313,1.1635742-1.4804688,1.6323242-2.6689453   c0.78125-1.9853516,0.5898438-4.1669922-0.5126953-5.8369141c-0.237793-0.3603516-0.4541016-0.5869141-0.6787109-0.7099609   c-0.1743774-0.097168-0.4328003-0.5280151-0.6992798-1.0946045c-0.0014038-0.0028687-0.0024414-0.0057983-0.0039063-0.008667   c-0.2504883-0.5336914-0.5063477-1.1849365-0.7072144-1.795166c-0.0015259-0.4725952,0.0449219-3.1881714,1.194458-4.8457031   c1.0250244-0.7322998,2.6224365-0.187439,2.6383057-0.1826172c0.2333984,0.0820313,0.4892578-0.0166016,0.6069336-0.2314453   l0.9287109-1.7021484c0.7358398-0.4013672,4.1791992-2.3330078,5.2182617-3.9306641   c0.5068359-0.7802734,0.9824219-2.1162109,1.4135742-3.9716797c0.4594727-1.9824219,0.2709961-4.0107422-0.5307617-5.7128906   C74.2431641,28.5458984,73.28125,27.5478516,72.0712891,27.0390625z M62.861145,33.4046021   c-1.0757446-0.6218872-5.1120605-2.6139526-12.5703735-2.7630005C50.2629395,30.6368408,50.2376709,30.625,50.2084961,30.625   c-0.1360474,0-0.2606201,0.0062866-0.3945313,0.0075073C49.6800537,30.6312866,49.555481,30.625,49.4194336,30.625   c-0.0291748,0-0.0544434,0.0118408-0.0822754,0.0166016c-7.4588013,0.1489868-11.4951172,2.1411133-12.5708618,2.7630005   c-1.3308105-0.8823242-1.2886353-2.1327515-1.2254639-2.5475464c0.663147-0.5089722,4.5070801-3.0718994,14.2736816-3.1419067   c9.7628784,0.0701294,13.6074829,2.6317749,14.2723999,3.1411133   C64.1503296,31.2736206,64.1907959,32.5230103,62.861145,33.4046021z M60.7558594,50.2421875   c0.0869141,0.1376953,0.2895508,0.25,0.4521484,0.2578125c0.1608887,0.0079346,0.7612305,0.246582,1.3463135,0.5274048   c0.0743408,0.2210693,0.1774902,0.5089722,0.3050537,0.8361816C61.0279541,51.4286499,56.744873,50.625,50.0859375,50.625   c-0.1027832,0-0.1928101,0.0383911-0.2722168,0.0914917C49.734314,50.6633911,49.6442871,50.625,49.5415039,50.625   c-6.6591187,0-10.9422607,0.803833-12.7734375,1.2387085c0.1275024-0.3272705,0.2307129-0.6151733,0.3050537-0.8363037   c0.585022-0.2808228,1.1851196-0.5194702,1.3433838-0.5274048c0.171875,0,0.3632813-0.1123047,0.4550781-0.2578125   c0.5357056-0.8514404,0.2521362-11.7260132-1.4857178-16.0341797c1.1499634-0.6293335,5.1958618-2.5070801,12.4281006-2.5754395   c7.2318726,0.0683594,11.2776489,1.946106,12.4276123,2.5754395   C60.5037231,38.5161743,60.2201538,49.3907471,60.7558594,50.2421875z M49.8526611,20.6265259   C49.8500366,20.6264648,49.8478394,20.625,49.8452148,20.625c-0.0109253,0-0.0205688,0.0006714-0.0314941,0.0006714   S49.7931519,20.625,49.7822266,20.625c-0.0026245,0-0.0048218,0.0014648-0.0074463,0.0015259   c-1.4485474,0.0032959-2.7058716,0.1062012-3.8012085,0.2671509c0.6436157-0.4747314,1.8618774-1.0927124,3.84021-1.0997314   c1.9779053,0.0070801,3.1951904,0.6246948,3.8390503,1.0995483C52.5577393,20.732666,51.3007202,20.6298218,49.8526611,20.6265259z    M49.1816406,15.9775391c0.5415039-0.4199219,0.3989258-1.5361328,0.2661133-2.1640625   c-0.0341797-0.1611328-0.1455078-0.2949219-0.2973633-0.3583984c-0.4873047-0.2021484-1.5307617-0.8164063-1.6430664-1.4208984   c-0.0170898-0.0908203-0.0688477-0.3701172,0.3789063-0.796875c1.5576172-1.484375,1.1943359-3.5400391,0.921875-4.4599609   l1.0056763-0.4285278l1.0060425,0.4285278c-0.2724609,0.9199219-0.6357422,2.9755859,0.9208984,4.4599609   c0.4477539,0.4257813,0.3964844,0.7050781,0.3793945,0.796875c-0.1196289,0.6484375-1.2548828,1.2587891-1.6430664,1.421875   c-0.1513672,0.0625-0.2626953,0.1962891-0.296875,0.3574219c-0.1333008,0.6279297-0.2758789,1.7441406,0.2651367,2.1640625   c0.1035767,0.0806274,0.333374,0.2265625,0.6154175,0.3980713c-0.4268188-0.0467529-0.8399048-0.0768433-1.201416-0.0807495   c-0.0049438-0.0001221-0.0090942-0.0028687-0.0140991-0.0028687c-0.0097656,0-0.0216675,0.0010986-0.0314941,0.0011597   c-0.0098267-0.000061-0.0217285-0.0011597-0.0314941-0.0011597c-0.0050049,0-0.0091553,0.0027466-0.0140991,0.0028687   c-0.3615723,0.0039063-0.7749023,0.0339966-1.2018433,0.0808105C48.8483276,16.2041626,49.078186,16.0582275,49.1816406,15.9775391   z M45.9804688,17.7971191c0.3236694-0.0650024,2.5438232-0.4976807,3.833252-0.5044556   c1.2784424,0.0067139,3.4735718,0.432251,3.8239136,0.5025024c0.5187988,0.2154541,1.5673218,0.7674561,1.6152954,1.7302246   c0.0229492,0.4564819-0.2164307,0.7646484-0.5201416,0.9749146c-0.5899658-0.5683594-2.0980225-1.6757202-4.8572998-1.7022095   c-0.0105591-0.0006714-0.0195313-0.0061035-0.0302734-0.0061035c-0.0113525,0-0.0202026,0.0020142-0.0314941,0.0020752   c-0.0112915-0.000061-0.0201416-0.0020752-0.0314941-0.0020752c-0.0107422,0-0.0197144,0.0054321-0.0302734,0.0061035   c-2.7559814,0.0264893-4.2641602,1.1314697-4.8553467,1.7005005c-0.3046875-0.2105103-0.5449219-0.5192261-0.5220947-0.9732056   C44.4228516,18.5613403,45.4576416,18.0132446,45.9804688,17.7971191z M40.5776367,23.8681641   c0.3588867-0.2957764,1.9212646-1.423584,5.3405762-1.9581909c0.0073242,0.0009155,0.0164795,0.0032959,0.0236816,0.0040894   c0.019043,0.0019531,0.0380859,0.0029297,0.0566406,0.0029297c0.071106,0,0.1375122-0.0183105,0.199585-0.0457764   c1.0385742-0.1483154,2.232666-0.2441406,3.6154785-0.2456055c1.3843994,0.0014648,2.5817261,0.0990601,3.6236572,0.250061   c0.0598755,0.0253296,0.1240234,0.0413208,0.1921387,0.0413208c0.0185547,0,0.0375977-0.0009766,0.0566406-0.0029297   c0.0036621-0.0004272,0.0083008-0.0016479,0.0119629-0.0020752c3.4069824,0.5367432,4.9920654,1.6662598,5.3532715,1.9581299   l0.074707,0.2285156c-1.5404053-0.49823-4.8007202-1.3378296-9.2727051-1.3469849   C49.8504028,22.7515869,49.8480835,22.75,49.8452148,22.75c-0.0108643,0-0.0206299,0.0007324-0.0314941,0.0007324   S49.7930908,22.75,49.7822266,22.75c-0.0028687,0-0.005188,0.0015869-0.0080566,0.0016479   c-4.4719849,0.0091553-7.7318115,0.8487549-9.2722168,1.3469849L40.5776367,23.8681641z M49.8137207,23.7504883   c2.3856812,0.0022583,4.421875,0.255249,6.0223389,0.5606689c-1.6541748-0.1827393-3.5794067-0.2956543-5.8186646-0.3076172   C50.0112915,24.0032959,50.0061646,24,50,24c-0.0638428,0-0.1229248,0.0014648-0.1862793,0.0016479   C49.7503662,24.0014648,49.6912842,24,49.6274414,24c-0.0061646,0-0.0112915,0.0032959-0.017395,0.00354   c-2.2391968,0.0119629-4.1643677,0.1248779-5.8185425,0.3076172   C45.3918457,24.0057373,47.4279785,23.7527466,49.8137207,23.7504883z M49.8134155,25.0028076   c11.777832,0.0307007,14.5001831,2.8474731,14.9717407,3.5020752l-0.4776001,1.281189   c-1.3729248-0.9078979-5.4077148-2.9301758-14.0206909-3.0622559c-0.0265503-0.0043335-0.0505371-0.0158081-0.0783691-0.0158081   c-0.1372681,0-0.2594604,0.0062866-0.3945313,0.0072021c-0.1350708-0.0009155-0.2572632-0.0072021-0.3945313-0.0072021   c-0.027832,0-0.0518188,0.0114746-0.0783691,0.0158081c-8.6130981,0.1320801-12.6479492,2.15448-14.020752,3.0623169   l-0.4770508-1.2792969C35.3293457,27.8338013,38.0699463,25.0335083,49.8134155,25.0028076z M31.6054688,43.0107422   c-0.046875-0.0859375-0.1181641-0.15625-0.2045898-0.2021484c-1.1040039-0.5869141-4.1513672-2.3876953-4.9814453-3.6640625   c-0.4370117-0.6728516-0.8789063-1.9355469-1.277832-3.6533203c-0.409668-1.7636719-0.2460938-3.5605469,0.4604492-5.0605469   c0.5786133-1.2285156,1.3662109-2.0595703,2.3417969-2.4697266c2.5493164-1.0750122,5.3238525,0.4569702,5.9378662,0.8300171   l0.6812744,1.8272095c-0.1030273,0.5341797-0.0849609,1.3466797,0.3032227,2.1455078   c-0.0288086-0.0068359-0.0585938-0.0117188-0.0893555-0.0126953c-0.2788086-0.0234375-0.5112305,0.1972656-0.5263672,0.4726563   c-0.0161133,0.3017578-0.0854492,0.8193359-0.3720703,0.8964844c-0.3930664,0.1064453-1.074707-0.3544922-1.2104492-0.5615234   c-0.0532227-0.0810547-0.1108398-0.2978516-0.0302734-0.4238281c0.0830078-0.1308594,0.3994141-0.2363281,1.0380859-0.140625   c0.2729492,0.0429688,0.5195313-0.1396484,0.5664063-0.4072266c0.4584961-2.5966797-1.5073242-3.8515625-2.6601563-4.1630859   c-0.1005859-0.015625-2.5068359-0.3974609-4.2866211,1.109375C26.1040039,30.5429688,25.5,32.1298828,25.5,34.25   c0,6.5751953,6.3276367,8.0566406,6.3916016,8.0712891c0.097168,0.0205078,0.199707,0.0126953,0.2919922-0.0234375   c0.0898438,0.0830078,0.3696289,0.4404297,0.5722656,1.7773438c0.0209351,0.1386719,0.1101685,0.2415161,0.2207642,0.3182373   c-0.2139282,0.0275269-0.4080811,0.0635376-0.5620728,0.0997314L31.6054688,43.0107422z M33.6889648,43.5898438   c-0.2319336-1.2880859-0.597168-2.0009766-1.1401367-2.2333984c-0.2089844-0.0888672-0.4125977-0.0898438-0.5776367-0.0478516   C31.1098633,41.0664063,26.5,39.5185547,26.5,34.25c0-1.8095703,0.4829102-3.1376953,1.4360352-3.9482422   c1.4023438-1.1923828,3.4121094-0.9023438,3.4326172-0.9023438c0.0898438,0.0244141,2.0161133,0.5761719,1.9389648,2.5595703   c-0.8857422,0.0048828-1.3095703,0.3203125-1.5126953,0.6376953c-0.3237305,0.5058594-0.2075195,1.1386719,0.0371094,1.5107422   c0.3027344,0.4619141,1.3916016,1.2285156,2.3066406,0.9785156c0.4575195-0.1240234,1.0136719-0.5224609,1.1044922-1.7138672   c0.2734375,0.3554688,0.6386719,0.6923828,1.1196289,0.9814453c1.6484375,3.6679688,1.9331055,13.4423828,1.6772461,15.2080078   c-0.2709961,0.0722656-0.59375,0.1982422-0.8896484,0.3261719C37.0605469,48.2070313,36.5395508,44.3994141,33.6889648,43.5898438z    M49.8137207,70.4503174c0.0776978,0.052002,0.1653442,0.090271,0.2658691,0.0916748   c0.4203491,0.0053101,9.4398804,0.1211548,11.1721802,0.1422119l0.3637695,0.7354736l-11.5310669,0.0383301   c-0.1022339,0.0003662-0.1917114,0.0388184-0.270752,0.0916748c-0.0790405-0.0528564-0.1685181-0.0913086-0.270752-0.0916748   l-11.5172119-0.0383301l0.3776245-0.7358398c1.8000488-0.0219116,10.7263794-0.1365356,11.1444702-0.1418457   C49.6483765,70.5405884,49.7360229,70.5023193,49.8137207,70.4503174z M49.8137207,93.9572144   c-13.81073-0.008606-18.923645-0.9382324-20.3015137-1.2687378l0.8630371-3.7092896   c1.5285645,0.5662231,5.979126,1.2270508,19.1628418,1.3128052c0.0014648,0,0.0024414,0,0.003418,0   c0.1027222,0,0.1928101-0.0383911,0.2722168-0.0914917c0.0794067,0.0531006,0.1694946,0.0914917,0.2722168,0.0914917   c0.0009766,0,0.0019531,0,0.003418,0c13.1838379-0.0857544,17.6343994-0.746521,19.1629028-1.3125l0.8629761,3.7089844   C68.734436,93.0189819,63.6212158,93.9486084,49.8137207,93.9572144z M69.1049805,88.0234375   c-1.1293945,0.7246094-10.4624023,1.2128906-19.0224609,1.2685547c-0.1014404,0.0007324-0.1902466,0.0391235-0.2687988,0.0916748   c-0.0785522-0.0525513-0.1673584-0.0909424-0.2687988-0.0916748c-8.5605469-0.0556641-17.8945313-0.5439453-19.0224609-1.2685547   c-0.0593872-0.8521118,0.9173584-1.840332,1.4403687-2.2695923L49.5307617,86.125c0.0039063,0,0.0073242,0,0.0107422,0   c0.102478,0,0.192688-0.038208,0.2722168-0.0913086C49.8932495,86.086792,49.9834595,86.125,50.0859375,86.125   c0.003418,0,0.0068359,0,0.0107422,0l17.5675659-0.3711548C68.168335,86.1682739,69.1623535,87.1723022,69.1049805,88.0234375z    M65.5180664,82.8857422c0.7421875,0.6123047,1.2412109,1.3564453,1.5322266,1.8808594L50.0751953,85.125   c-0.0988159,0.0020752-0.1848755,0.0400391-0.2614746,0.0912476c-0.0765991-0.0512085-0.1626587-0.0891724-0.2614746-0.0912476   l-16.9750977-0.3583984c0.2910156-0.5244141,0.7900391-1.2685547,1.5322266-1.8808594   c1.5371094-1.265625,1.8950195-5.4570313,1.9306641-5.9306641c0.0055542-0.0728149-0.0065308-0.1421509-0.0298462-0.206665   L49.5551758,76.375c0.0978394-0.0027466,0.1828613-0.0404663,0.2585449-0.0910645   c0.0756836,0.0505981,0.1607056,0.0883179,0.2585449,0.0910645l13.5449829,0.3734131   c-0.0233154,0.0644531-0.0354004,0.1338501-0.0298462,0.206665C63.6230469,77.4287109,63.9814453,81.6201172,65.5180664,82.8857422   z M63.5478516,73.6074219c-0.0170898,0.1416016,0.027832,0.2841797,0.1225586,0.3916016   c0.0947266,0.1064453,0.230957,0.1679688,0.3740234,0.1679688c0.315918,0,0.5131836,0.0253906,0.6303711,0.0498047   l0.0268555,1.5605469L50.0996094,75.375c-0.0980225-0.0072021-0.1968384,0.0339355-0.2842407,0.0953369   c-0.086853-0.0614014-0.1859131-0.1025391-0.2875366-0.0953369l-14.6020508,0.4023438l0.0273438-1.5605469   c0.1171875-0.0244141,0.3144531-0.0498047,0.6303711-0.0498047c0.1430664,0,0.2792969-0.0615234,0.3740234-0.1679688   c0.0947266-0.1074219,0.1396484-0.25,0.1225586-0.3916016c-0.0557861-0.4638062,0.7730713-0.9827271,1.2344971-1.1900635   l12.2254639,0.0406494c0.0004883,0,0.0009766,0,0.0014648,0c0.1027222,0,0.192749-0.0384521,0.2722168-0.0915527   c0.0794678,0.0531006,0.1694946,0.0915527,0.2722168,0.0915527c0.0004883,0,0.0009766,0,0.0014648,0l12.2255249-0.0406494   C62.7736816,72.6223755,63.604126,73.1394653,63.5478516,73.6074219z M58.512207,68.8193359l2.0581055,0.4873047   l0.1836548,0.3712769c-2.5861206-0.0323486-10.6616821-0.1359253-10.6616821-0.1359253c-0.0019531,0-0.0043945,0-0.0063477,0   c-0.1026001,0-0.192749,0.038269-0.2722168,0.0913696c-0.0794678-0.0531006-0.1696167-0.0913696-0.2722168-0.0913696   c-0.0019531,0-0.0043945,0-0.0063477,0c0,0-8.0571289,0.1033325-10.6531372,0.1358643l0.1755981-0.3721924l2.0717773-0.4892578   c0.4458008-0.1201172,1.9326172-0.5615234,2.3378906-1.2207031c0.2504272-0.4064331,0.1939087-0.9164429,0.0717163-1.3370361   l6.06604,0.0698853c0.0078125,0.0003662,0.0144653,0.0044556,0.0223999,0.0044556c0.0019531,0,0.0039063,0,0.0058594,0   l0.1804199-0.0020752l0.1804199,0.0020752c0.0019531,0,0.0039063,0,0.0058594,0   c0.0079346,0,0.0145874-0.0040894,0.0223999-0.0044556l6.06604-0.0698853   c-0.1221313,0.4204712-0.1786499,0.9301758,0.0717163,1.3360596C56.5664063,68.2548828,58.0522461,68.6962891,58.512207,68.8193359   z M64.7148438,54.7412109c0.9228516,1.3984375,1.0791016,3.2373047,0.4165039,4.9189453   c-0.4145508,1.0517578-0.8818359,1.8291016-1.3896484,2.3105469c-1.4302368,1.3565674-6.3369751,3.0570679-6.9918213,3.2802124   l-6.9361572,0.079895l-6.9363403-0.079895c-0.6552124-0.2232056-5.5605469-1.9229126-6.9916382-3.281189   c-0.5078125-0.4804688-0.9750977-1.2578125-1.3896484-2.3095703c-0.6621094-1.6816406-0.5063477-3.5205078,0.4169922-4.9189453   c0.206543-0.3134766,0.3168945-0.3798828,0.3300781-0.3876953c0.3571777-0.1986084,0.7043457-0.7275391,1.0076294-1.3234253   C37.206665,52.7645874,41.7622681,51.625,49.5415039,51.625c0.1027832,0,0.1928101-0.0383911,0.2722168-0.0914917   C49.8931274,51.5866089,49.9831543,51.625,50.0859375,51.625c7.7785645,0,12.3341675,1.1392212,13.2908936,1.4049683   c0.3035278,0.5961914,0.651062,1.1254883,1.0089111,1.3245239C64.3979492,54.3613281,64.5078125,54.4277344,64.7148438,54.7412109z    M62.4770508,49.8876953c-0.2958984-0.1279297-0.6186523-0.2539063-0.8891602-0.3261719   c-0.2558594-1.765625,0.0288086-11.5400391,1.6767578-15.2080078c0.480957-0.2890625,0.8461914-0.6259766,1.1196289-0.9814453   c0.0908203,1.1914063,0.6474609,1.5908203,1.1049805,1.7138672c0.9160156,0.25,2.0043945-0.5166016,2.3061523-0.9785156   c0.2446289-0.3720703,0.3608398-1.0048828,0.0371094-1.5107422c-0.203125-0.3173828-0.6376953-0.6337891-1.512207-0.6376953   c-0.0727539-1.9697266,1.8491211-2.5341797,1.8891602-2.5488281c0.0200195-0.0029297,2.0463867-0.3251953,3.4760742,0.8857422   c0.956543,0.8105469,1.4418945,2.140625,1.4418945,3.9541016c0,5.3164063-4.5795898,6.8183594-5.4682617,7.0595703   c-0.1674805-0.0429688-0.3710938-0.0419922-0.5800781,0.046875c-0.5429688,0.2324219-0.9086914,0.9453125-1.140625,2.2333984   C63.0883789,44.3994141,62.5668945,48.2070313,62.4770508,49.8876953z M74.4863281,35.4912109   c-0.3989258,1.7177734-0.8408203,2.9804688-1.2783203,3.6533203c-0.8295898,1.2763672-3.8774414,3.0771484-4.9814453,3.6640625   c-0.0864258,0.0458984-0.1577148,0.1162109-0.2045898,0.2021484l-0.809082,1.4824219   c-0.1539917-0.0361938-0.3481445-0.0721436-0.5620728-0.0996704c0.1106567-0.0767212,0.1998291-0.1796265,0.2207642-0.3182983   c0.203125-1.3378906,0.4819336-1.6943359,0.5722656-1.7773438c0.0913086,0.0361328,0.1938477,0.0439453,0.2919922,0.0234375   c0.0639648-0.0146484,6.3916016-1.4960938,6.3916016-8.0712891c0-2.1201172-0.6040039-3.7070313-1.7954102-4.7167969   c-1.7802734-1.5068359-4.1860352-1.1269531-4.3359375-1.0986328c-1.1035156,0.3007813-3.0693359,1.5556641-2.6108398,4.1523438   c0.046875,0.2675781,0.2919922,0.4501953,0.5664063,0.4072266c0.637207-0.0947266,0.9545898,0.0107422,1.0380859,0.140625   c0.0805664,0.1259766,0.0229492,0.3427734-0.0307617,0.4248047c-0.1347656,0.2060547-0.8154297,0.6699219-1.2094727,0.5605469   c-0.2871094-0.0771484-0.3564453-0.5947266-0.3725586-0.8964844C65.3623047,32.9570313,65.1416016,32.75,64.8779297,32.75   c-0.0375977,0.0019531-0.0786133,0.0048828-0.1166992,0.0136719c0.3881836-0.7988281,0.4067383-1.6113281,0.3037109-2.1455078   l0.6809082-1.8273926c0.6141357-0.3734741,3.3867798-1.9046631,5.9377441-0.829834   c0.9755859,0.4101563,1.7631836,1.2412109,2.3417969,2.4697266C74.7314453,31.9306641,74.8955078,33.7275391,74.4863281,35.4912109   z" />
  </g>
</svg>
