<svg width="512" height="512" viewBox="0 0 512 512" fill="none" xmlns="http://www.w3.org/2000/svg">
<rect x="171.5" y="483.5" width="170" height="15" rx="5.5" stroke="#F9D10B" stroke-width="5"/>
<circle cx="256" cy="117" r="93.5" stroke="#F9D10B" stroke-width="5"/>
<path fill-rule="evenodd" clip-rule="evenodd" d="M160.5 123C160.5 166.985 181.08 216.942 201.441 255.671C211.648 275.085 221.852 291.774 229.505 303.61C230.015 304.399 230.513 305.166 231 305.912V302H234.419C234.183 301.637 233.945 301.269 233.703 300.895C226.111 289.152 215.988 272.594 205.867 253.344C185.574 214.745 165.5 165.701 165.5 123H160.5ZM258 355.921C259.642 361.659 261.359 367.932 263.076 374.619C271.268 406.526 279.5 448.012 279.5 486H274.5C274.5 448.63 266.386 407.616 258.233 375.862C257.174 371.74 256.116 367.777 255.075 364H258V355.921Z" fill="#F9D10B"/>
<path d="M348 102C361.566 185.203 277.58 305.316 277.58 305.316C277.58 305.316 230.35 405.258 235.374 486" stroke="#F9D10B" stroke-width="5"/>
<path fill-rule="evenodd" clip-rule="evenodd" d="M216.172 201.912C225.752 226.365 239.466 250.637 250.753 268.759C250.835 268.892 250.918 269.024 251 269.155V269H256.805C256.21 268.057 255.607 267.095 254.997 266.116C243.784 248.113 230.248 224.135 220.828 200.088L216.172 201.912ZM278 299.956V305H275.49C277.31 307.521 279.612 310.803 282.256 314.769C288.983 324.865 297.911 339.382 306.699 357.051C324.294 392.428 341.226 440.236 339.002 490.389L343.998 490.611C346.274 439.264 328.956 390.572 311.176 354.824C302.276 336.93 293.235 322.229 286.416 311.996C283.006 306.879 280.15 302.877 278.141 300.148C278.094 300.083 278.047 300.019 278 299.956Z" fill="#F9D10B"/>
<path fill-rule="evenodd" clip-rule="evenodd" d="M294.659 200.221C292.505 201.242 290.305 202.182 288.063 203.036C287.529 204.29 286.994 205.527 286.46 206.747C278.572 224.759 270.686 239.102 264.779 248.931C261.826 253.845 259.369 257.63 257.654 260.179C256.797 261.454 256.126 262.42 255.671 263.063C255.444 263.385 255.271 263.627 255.156 263.786C255.098 263.865 255.055 263.924 255.027 263.963L255.006 263.992L255.005 263.994L254.95 264.064L254.875 264.161C254.836 264.212 254.789 264.274 254.735 264.345C254.546 264.591 254.267 264.957 253.906 265.437C253.183 266.396 252.128 267.812 250.792 269.65C248.121 273.325 244.324 278.687 239.811 285.448C230.788 298.967 218.891 318.099 207.4 340.548C184.469 385.344 162.924 443.784 169.519 497.306L174.481 496.694C168.076 444.716 189.031 387.406 211.85 342.827C223.234 320.589 235.025 301.626 243.97 288.224C248.442 281.524 252.2 276.218 254.837 272.59C256.155 270.776 257.193 269.383 257.9 268.445C258.253 267.976 258.523 267.621 258.704 267.385C258.749 267.326 258.788 267.275 258.822 267.231C258.857 267.186 258.885 267.149 258.908 267.119L258.958 267.054L258.97 267.039L258.973 267.035C258.973 267.035 258.974 267.035 257 265.5L258.974 267.035L258.993 267.01L259.011 266.985L257 265.5C259.011 266.985 259.012 266.984 259.013 266.983L259.016 266.978L259.027 266.964L259.065 266.912L259.123 266.833L259.209 266.714C259.334 266.54 259.518 266.284 259.755 265.947C260.231 265.274 260.924 264.277 261.803 262.969C263.561 260.355 266.065 256.499 269.065 251.506C275.064 241.523 283.053 226.991 291.04 208.753C292.249 205.993 293.457 203.148 294.659 200.221Z" fill="#F9D10B"/>
</svg>
