<svg xmlns="http://www.w3.org/2000/svg" xmlns:xlink="http://www.w3.org/1999/xlink" version="1.1" x="0px" y="0px"
  viewBox="0 0 100 100" style="enable-background:new 0 0 100 100;" xml:space="preserve">
  <g>
    <path fill="#f9d10b"
      d="M66.0385742,38.9921875C68.9682617,31.375,68.9121094,18.015625,68.8876953,12.3105469L68.8842773,11.125   c0-0.1142578-0.0390625-0.2246094-0.1103516-0.3134766c-2.9204102-3.6337891-15.0571289-4.2255859-15.5727539-4.2480469   C53.1938477,6.5625,53.1860352,6.5625,53.1787109,6.5625l-0.8081055,0.0009766   c-0.515625,0.0224609-12.6523438,0.6142578-15.5727539,4.2480469C36.7265625,10.9003906,36.6875,11.0107422,36.6875,11.125   l-0.003418,1.1855469C36.659668,18.015625,36.6035156,31.375,39.5332031,38.9921875   c3.1118164,8.0898438,5.1376953,10.46875,7.2919922,11.3564453c0.0473633,2.3964844,0.0498047,3.1347656,0.0561523,3.1347656   l-3.6298828,21.2236328c-0.6118164,0.1875-1.3852539,0.7109375-1.4384766,1.8320313l-0.0411987,0.8655396   C41.7246094,77.3898315,41.677063,77.375,41.625,77.375c-0.2763672,0-0.5,0.2236328-0.5,0.5v2.7966919   c-0.1045532,1.4649658-0.5074463,5.4749756-1.1347656,6.7296753C39.9555664,87.4707031,39.9375,87.5478516,39.9375,87.625   v1.1140137l-1.1030273,3.6154785c-0.0463867,0.1513672-0.0180664,0.3164063,0.0766602,0.4433594   C39.0053711,92.9248047,39.1542969,93,39.3125,93c0.0004883,0,0.0004883,0,0.0009766,0   c0.4604492-0.0009766,11.296875-0.0214844,13.0795898-0.0830078h0.7685547   C54.9614258,92.9785156,65.7978516,92.9990234,66.2583008,93c0.0004883,0,0.0004883,0,0.0009766,0   c0.1582031,0,0.3071289-0.0751953,0.4013672-0.2021484c0.0947266-0.1269531,0.1230469-0.2919922,0.0766602-0.4433594   l-1.1030273-3.6154785V87.625c0-0.0771484-0.0180664-0.1542969-0.0527344-0.2236328   c-0.6273193-1.2546997-1.0302124-5.2647095-1.1347656-6.7296753V77.875c0-0.2763672-0.2236328-0.5-0.5-0.5   c-0.052063,0-0.0996094,0.0148315-0.1467896,0.0296021l-0.0411987-0.8655396   c-0.0532227-1.1210938-0.8271484-1.6445313-1.4389648-1.8320313L58.6967773,53.5625   c0-0.0058594,0.0004883-0.6982422,0.0498047-3.2138672C60.9008789,49.4609375,62.9267578,47.0820313,66.0385742,38.9921875z    M40.4667969,38.6328125c-2.8623047-7.4414063-2.8066406-20.6689453-2.7827148-26.3173828l0.0029297-1.0058594   C40.5341797,8.1386719,52.2954102,7.5673828,52.3930664,7.5625h0.7739258   c0.4189453,0.0205078,11.9082031,0.6181641,14.7177734,3.7470703l0.0029297,1.0058594   c0.0239258,5.6484375,0.0795898,18.8759766-2.7827148,26.3173828C62.0219116,46.6497803,60.0907593,48.8017578,58.1604614,49.5   H47.4113159C45.4810181,48.8017578,43.5498657,46.6497803,40.4667969,38.6328125z M53.1787109,91.9169922h-0.8027344   c-1.5268555,0.0527344-9.9267578,0.0761719-12.3876953,0.0820313L40.8074341,89.3125h23.9569092l0.8191528,2.6865234   C63.1225586,91.9931641,54.7202148,91.9697266,53.1787109,91.9169922z M64.6342773,88.3125H40.9375v-0.5751953   c0.6775513-1.5054321,1.039856-5.2388306,1.1494141-6.5498047h21.3979492   c0.1095581,1.3109741,0.4718628,5.0443726,1.1494141,6.5498047V88.3125z M63.3217773,78.375   c0.043396,0,0.0837402-0.0147095,0.125-0.0255737V80.1875H42.125v-1.8380737C42.1662598,78.3602905,42.206604,78.375,42.25,78.375   H63.3217773z M61.3916016,75.2089844c0.0371094,0.2197266,0.2197266,0.3886719,0.440918,0.4130859   c0.1479492,0.0166016,0.8881836,0.1416016,0.9272461,0.9638672L62.7973633,77.375H42.7744141l0.0375977-0.7890625   c0.0390625-0.8222656,0.7792969-0.9472656,0.9228516-0.9628906c0.2250977-0.0214844,0.4072266-0.1914063,0.4453125-0.4140625   L47.875,53.5625c0,0-0.0006104-0.678894-0.0467529-3.0625h9.9152832c-0.0460815,2.3840332-0.0462646,3.0680542-0.0394287,3.1464844   L61.3916016,75.2089844z" />
  </g>
</svg>
