<svg xmlns="http://www.w3.org/2000/svg" xmlns:xlink="http://www.w3.org/1999/xlink" version="1.1" x="0px" y="0px"
  viewBox="0 0 100 125" style="enable-background:new 0 0 100 100;" xml:space="preserve">
  <g>
    <path fill="#f9d10b"
      d="M70.815918,6.4365234c-2.9662476-0.8591309-17.0117188-0.8656006-19.5913696-0.8557129   c-2.730835-0.0088501-16.5870972,0.0029907-19.5302124,0.8557129c-0.1743164,0.0507813-0.3076172,0.1914063-0.3481445,0.3691406   c-0.0405273,0.1767578,0.0180664,0.3613281,0.152832,0.4833984C33.8173828,9.375,42.9111328,28.3867188,41.2695313,38.296875   c-0.2583008,1.0478516-0.762207,1.3271484-0.7719727,1.3320313c-0.0539551,0.0252686-0.1013794,0.0592651-0.1416626,0.0994263   c-0.005249,0.005188-0.0078735,0.0123901-0.0128174,0.0178223c-0.0358887,0.0390625-0.0657959,0.0821533-0.0875854,0.1299438   c-0.0084229,0.0182495-0.0112305,0.038269-0.017395,0.0576172c-0.0126953,0.0397339-0.0221558,0.0794067-0.0245361,0.1216431   c-0.0005493,0.0096436-0.0055542,0.0178223-0.0055542,0.0276489v1.7909546   c-0.4331665,0.8167114-2.744812,5.546936-0.1020508,8.9336548c1.7225952,2.2075806,3.9987793,3.2872314,6.239624,3.8087158   c-0.3536377,0.4971924-0.7235107,1.2346802-0.7235107,2.1756592c0,1.4956055,1.0132446,2.1073608,1.3885498,2.2837524   c0.5038452,0.5762329,1.237915,1.6344604,1.2384033,2.2572632l0.0039063,0.2353516   c0.0322266,1.2939453,0.1162109,4.7128906-5.4414063,9.4365234c-2.9235229,0.1484375-3.446106,3.7357178-3.5397949,5.078125   h-3.6882324c-0.2763672,0-0.5,0.2236328-0.5,0.5v17.5c0,0.2763672,0.2236328,0.5,0.5,0.5h15.5961914h0.1503906h15.5966797   c0.2763672,0,0.5-0.2236328,0.5-0.5v-17.5c0-0.2763672-0.2236328-0.5-0.5-0.5h-3.6882324   c-0.093689-1.3424072-0.616272-4.9296875-3.5397949-5.078125c-5.5576172-4.7236328-5.4736328-8.1425781-5.4414063-9.4365234   l0.0039063-0.2353516c0.0004883-0.6210327,0.7348633-1.6794434,1.2387085-2.2573853   c0.3756104-0.1766357,1.3882446-0.7883911,1.3882446-2.2836304c0-0.940979-0.3699341-1.6785889-0.7235718-2.1757813   c2.2406616-0.5214844,4.5168457-1.6011353,6.2396851-3.8085938c2.6427612-3.3867188,0.3311157-8.1169434-0.1020508-8.9336548   v-1.7909546c0-0.0170288-0.0079956-0.0313721-0.0096436-0.0479126c-0.0001831-0.00177-0.0009155-0.003479-0.0010986-0.0053101   c-0.0161133-0.1454468-0.0922852-0.2672119-0.2056885-0.3475952c-0.020752-0.015625-0.0380859-0.0349731-0.0614014-0.0474243   c-0.0214844-0.0107422-0.5253906-0.2900391-0.7763672-1.2998047C59.5991211,28.3867188,68.6928711,9.375,71.0112305,7.2890625   c0.1347656-0.1220703,0.1933594-0.3066406,0.152832-0.4833984C71.1235352,6.6279297,70.9902344,6.4873047,70.815918,6.4365234z    M51.3300781,93.5830078h-0.1503906H36.0834961v-16.5h3.6660156H39.75H51c0.0953369,0,0.1793823-0.0337524,0.255127-0.0799561   c0.0757446,0.0462036,0.15979,0.0799561,0.255127,0.0799561h11.25h0.0004883h3.6660156v16.5H51.3300781z M51.5102539,76.0830078   c-0.0953369,0-0.1793823,0.0337524-0.255127,0.0799561c-0.0757446-0.0462036-0.15979-0.0799561-0.255127-0.0799561H40.2769775   C40.2905884,75.916626,40.3101807,75.7212524,40.3417969,75.5h10.8378906h0.1503906H62.168457   c0.0316162,0.2212524,0.0512085,0.416626,0.0648193,0.5830078H51.5102539z M61.9630127,74.5H51.3300781h-0.1503906H40.5472412   c0.3253174-1.2109985,1.0073853-2.4996948,2.4523315-2.499939l8.1692505,0.0813599   c0.0028076,0.000061,0.005127,0.0015869,0.0079346,0.0015869c0.0014648,0,0.003418,0,0.0048828,0l0.0734863-0.0007324   l0.0734863,0.0007324c0.0014648,0,0.003418,0,0.0048828,0c0.0028076,0,0.005127-0.0015259,0.0079346-0.0015869l8.1692505-0.0813599   C60.9556274,72.0003052,61.6376953,73.2890015,61.9630127,74.5z M58.2015381,71.0130005l-6.9464111,0.0691528l-6.9464111-0.0691528   c5.0582275-4.6532593,4.977356-8.1165771,4.9442139-9.4690552l-0.0039063-0.2109375   c-0.0005493-0.7230835-0.4752808-1.5562744-0.9035645-2.1660156H51c0.0953369,0,0.1793823-0.0337524,0.255127-0.0799561   c0.0757446,0.0462036,0.15979,0.0799561,0.255127,0.0799561h2.654541   c-0.4282837,0.6097412-0.9030151,1.4429321-0.9035645,2.1660156l-0.0039063,0.2109375   C53.2241821,62.8964233,53.1433105,66.3597412,58.2015381,71.0130005z M55.8881836,56.7919922   c0,0.9140625-0.5883789,1.2753906-0.7963867,1.375h-3.581543c-0.0953369,0-0.1793823,0.0337524-0.255127,0.0799561   c-0.0757446-0.0462036-0.15979-0.0799561-0.255127-0.0799561h-3.5810547c-0.2133789-0.1015625-0.796875-0.4638672-0.796875-1.375   c0-0.9654541,0.557251-1.6697388,0.8334351-1.9597168C48.7164307,55.0320435,49.9348755,55.0830078,51,55.0830078   c0.0953369,0,0.1793823-0.0337524,0.255127-0.0799561c0.0757446,0.0462036,0.15979,0.0799561,0.255127,0.0799561   c1.0656738,0,2.2848511-0.0510864,3.5466309-0.2511597C55.3331299,55.1194458,55.8881836,55.8182373,55.8881836,56.7919922z    M61.6162109,50.1923828c-2.722168,3.4873047-7.0712891,3.890625-10.105957,3.890625   c-0.0953369,0-0.1793823,0.0337524-0.255127,0.0799561c-0.0757446-0.0462036-0.15979-0.0799561-0.255127-0.0799561   c-3.0351563,0-7.3842773-0.4033203-10.105957-3.890625c-2.1079102-2.7008667-0.3878784-6.664917,0.1188354-7.6923828h9.9612427   h0.5620117h9.9619751C62.0057983,43.5263672,63.7290039,47.4841919,61.6162109,50.1923828z M61.3022461,40.5830078V41.5h-9.7661133   h-0.5620117h-9.7661133v-0.9169922h9.6796875h0.7348633H61.3022461z M60.2695313,38.5371094   c0.1064453,0.4306641,0.2504883,0.7734375,0.4052734,1.0458984h-9.0522461h-0.7348633h-9.0571289   c0.1586914-0.2802734,0.3076172-0.6357422,0.4174805-1.0839844c1.6181641-9.7607422-6.3891602-27.1445313-9.4838867-31.2685547   c3.7373047-0.6015625,14.590332-0.6494141,17.9248047-0.6494141c0.0514526,0,0.0888672,0.0002441,0.1364136,0.0003052   c0.0028687,0.000061,0.005249,0.0016479,0.0081177,0.0016479c0.0009766,0,0.0014648,0,0.0024414,0   c0.0118408-0.000061,0.1148682-0.0004883,0.2806396-0.0009155c0.3532715,0.0016479,0.5449829,0.0045166,0.5601807,0.0009155   c0.0029907,0,0.0054932-0.0016479,0.0084839-0.001709c3.1541748-0.0015259,14.2680054,0.038269,18.0608521,0.6491699   C66.6513672,11.3554688,58.6445313,28.7402344,60.2695313,38.5371094z" />
    <path fill="#f9d10b"
      d="M51.5380859,79.0839844c-0.1098633-0.0103149-0.2041016,0.0232544-0.2866821,0.0736084   c-0.0825806-0.0494995-0.175354-0.0827637-0.2792358-0.0736084C49.1147461,79.1865234,45.9980469,79.5732422,45.9980469,81v9   c0,0.1425781,0.0610352,0.2792969,0.1679688,0.3740234c0.065918,0.0585938,1.6508789,1.4384766,4.7651367,1.8710938   C50.9545898,92.2480469,50.9775391,92.25,51.0004883,92.25c0.0935059,0,0.1784058-0.0327148,0.2546387-0.0789795   C51.3313599,92.2172852,51.4162598,92.25,51.5097656,92.25c0.0229492,0,0.0458984-0.0019531,0.0693359-0.0048828   c3.1142578-0.4326172,4.6992188-1.8125,4.7651367-1.8710938C56.4511719,90.2792969,56.512207,90.1425781,56.512207,90v-9   C56.512207,79.5732422,53.3955078,79.1865234,51.5380859,79.0839844z M55.512207,89.7568359   c-0.4501953,0.328125-1.8041992,1.1826172-4.0708008,1.4980469c-0.0679932,0.0094604-0.1307373,0.0323486-0.1862793,0.0653076   c-0.055542-0.032959-0.1182861-0.0558472-0.1862793-0.0653076c-2.2485352-0.3125-3.6162109-1.1708984-4.0708008-1.4990234   l-0.0029297-8.7392578c0.159668-0.3798828,2.081543-0.8251953,4.0327148-0.9345703   c0.0847168-0.0048218,0.1593018-0.0355225,0.2271118-0.0765381c0.0679321,0.0412598,0.1426392,0.0720215,0.227478,0.0765381   C53.4335938,80.1904297,55.3554688,80.6357422,55.512207,81V89.7568359z" />
  </g>
</svg>
