<svg xmlns="http://www.w3.org/2000/svg" xmlns:xlink="http://www.w3.org/1999/xlink" version="1.1" x="0px" y="0px"
  viewBox="0 0 100 125" style="enable-background:new 0 0 100 100;" xml:space="preserve">
  <path fill="#f9d10b"
    d="M40.8126221,12.9580126v-2.4165039c0-0.2768555-0.1523438-0.53125-0.3974609-0.6616211l-1.875-1  c-0.2578125-0.1376953-0.5761719-0.112793-0.8095703,0.0673828l-1.625,1.25  c-0.1845703,0.1416016-0.2929688,0.3613281-0.2929688,0.5942383v2.1665039c0,0.215332,0.0927734,0.4199219,0.2539063,0.5625  l1.9375,1.7084961c0.1425781,0.1254883,0.3193359,0.1875,0.4960938,0.1875c0.203125,0,0.4052734-0.0820313,0.5537109-0.2436523  l1.5625-1.7084961C40.7423096,13.3256884,40.8126221,13.1455126,40.8126221,12.9580126z M39.3126221,12.666997l-0.8691406,0.949707  l-1.1308594-0.9970703v-1.4589844l0.9492188-0.7299805l1.0507813,0.5610352V12.666997z" />
  <path fill="#f9d10b"
    d="M48.4151611,9.8798876l-1.875-1c-0.2587891-0.1376953-0.5761719-0.112793-0.8095703,0.0673828l-1.625,1.25  c-0.1845703,0.1416016-0.2929688,0.3613281-0.2929688,0.5942383v2.1665039c0,0.215332,0.0927734,0.4199219,0.2539063,0.5625  l1.9375,1.7084961c0.1425781,0.1254883,0.3193359,0.1875,0.4960938,0.1875c0.203125,0,0.4052734-0.0820313,0.5537109-0.2436523  l1.5625-1.7084961c0.1259766-0.1386719,0.1962891-0.3188477,0.1962891-0.5063477v-2.4165039  C48.8126221,10.2646532,48.6602783,10.0102587,48.4151611,9.8798876z M47.3126221,12.666997l-0.8691406,0.949707  l-1.1308594-0.9970703v-1.4589844l0.9492188-0.7299805l1.0507813,0.5610352V12.666997z" />
  <path fill="#f9d10b"
    d="M44.4151611,16.8798866l-1.875-0.999999c-0.2578125-0.1386719-0.5761719-0.1132813-0.8095703,0.0673828l-1.625,1.249999  c-0.1845703,0.1416016-0.2929688,0.3613281-0.2929688,0.5942383v2.1665039c0,0.215332,0.0927734,0.4199219,0.2539063,0.5625  l1.9375,1.7084961c0.1425781,0.1254883,0.3193359,0.1875,0.4960938,0.1875c0.203125,0,0.4052734-0.0820313,0.5537109-0.2436523  l1.5625-1.7084961c0.1259766-0.1386719,0.1962891-0.3188477,0.1962891-0.5063477v-2.4165039  C44.8126221,17.2646523,44.6602783,17.0102577,44.4151611,16.8798866z M43.3126221,19.666996l-0.8691406,0.949707  l-1.1308594-0.9970703v-1.4589844l0.9492188-0.7299805l1.0507813,0.5610352V19.666996z" />
  <path fill="#f9d10b"
    d="M82.3790283,8.1333055c-0.1376953-0.2128911-0.375-0.3417974-0.6289063-0.3417974H66.9171143  c-0.1287842,0-0.2441406,0.0409546-0.3500366,0.0982056c-0.0368042-0.4133301-0.0634155-0.6833496-0.0708618-0.756897  c-0.0371094-0.3730469-0.3447266-0.6606445-0.71875-0.6743164L49.741333,5.8754926  c-0.0107422-0.0002441-0.0187988,0.0045776-0.0293579,0.0046997c-0.0092163-0.0002441-0.0170288-0.0047607-0.0263062-0.0046997  L34.2218018,6.4585004c-0.3740234,0.0141602-0.6801758,0.3017578-0.7177734,0.6743164  c-0.0074463,0.0734863-0.0340576,0.3433228-0.0709229,0.7564697c-0.1057739-0.0570068-0.2209473-0.0977783-0.3494873-0.0977783  H18.2501221c-0.2543945,0-0.4912109,0.1289063-0.6293945,0.3422856c-0.1381836,0.2128906-0.1591797,0.4819336-0.0551758,0.7138672  c0.0136719,0.0302734,1.3510742,3.0493164,1.3510742,5.5273438c0,0.2192383,0.7724609,22.5219727,10.3691406,30.0888672  c6.769043,5.3369141,10.574707,6.0507813,12.1254883,6.0507813c0.416748,0,0.6646118-0.0505981,0.7695313-0.0776978v6.0215454  c0,0.0546875,0.0058594,0.1083984,0.0175781,0.1621094c0.0145264,0.0654297,0.0516968,0.2255859,0.1104126,0.4460449  c-2.3771973,0.692749-9.2207031,2.8468018-10.3174438,4.9865723c-0.0791626,0.1543579-0.1231079,0.298584-0.1519165,0.4366455  l-2.3728027,4.6978798c-0.000061,0.0001221-0.0001221,0.0001221-0.0001831,0.0002441s-0.000061,0.0002441-0.0001221,0.0003662  l-0.0076904,0.0152588c-0.0081177,0.0161133-0.0054932,0.0354004-0.0123901,0.052002  c-0.0349731,0.0842896-0.0579224,0.1695557-0.0612183,0.2567139c-0.0004272,0.0101318-0.006958,0.019043-0.006958,0.0291748  v7.8433228l-4.7250977,4.4437866c-0.1171875,0.109375-0.1958008,0.2548828-0.2246094,0.4130859  c-0.0332031,0.1865234-0.7880859,4.5917969,2.050293,7.3388672c1.5864258,1.5351563,7.8686523,6.5439453,22.1044922,6.5439453  h2.8339844c14.2363281,0,20.5185547-5.0087891,22.1044922-6.5439453c2.8378906-2.7470703,2.0830078-7.1523438,2.0498047-7.3388672  c-0.0283203-0.1582031-0.1074219-0.3037109-0.2246094-0.4130859l-4.7246094-4.4437256v-7.8433838  c0-0.010498-0.0065918-0.0197754-0.007019-0.0302124c-0.0029907-0.0759888-0.0249634-0.1495972-0.052002-0.2237549  c-0.0092163-0.0253296-0.0061646-0.0537109-0.0181274-0.078064l-2.4785156-5.0214882  c-0.0031128-0.0062866-0.0090332-0.0097656-0.0122681-0.0159302c-0.0172119-0.0402832-0.0241699-0.0774536-0.0453491-0.1188354  c-1.0967407-2.1397705-7.9402466-4.2938232-10.3174438-4.9865723c0.0587158-0.220459,0.0958862-0.3806152,0.1104126-0.4460449  c0.0117188-0.0537109,0.0175781-0.1074219,0.0175781-0.1621094v-6.0215454  c0.1049194,0.0270996,0.3527832,0.0776978,0.7695313,0.0776978c1.5517578,0,5.3564453-0.7143555,12.1259766-6.0507813  c9.5957031-7.565918,10.3681641-29.8696289,10.3681641-30.0888672c0-2.4707031,1.3378906-5.4970703,1.3515625-5.5273438  C82.538208,8.6157274,82.5177002,8.3466845,82.3790283,8.1333055z M66.8862305,12.495122  c0.1350098,0.1306763,0.3175049,0.2128906,0.5201416,0.2128906h8.2910156  c0.0917969,2.9321289,0.1806641,14.4121084-3.5556641,23.2929688c-4.1767578,9.9306641-13.4716797,10.762207-13.8652344,10.7924805  c-0.1813965,0.0141602-0.3358154,0.0990601-0.4570313,0.2163086v-0.3847656c0-7.1474609,3.0947266-11.6728516,5.5810547-15.3095703  c0.8544922-1.2504883,1.6621094-2.4316406,2.265625-3.5952148C67.192749,24.7755775,67.1434326,17.5547523,66.8862305,12.495122z   M34.3341064,27.7202187c0.6035156,1.1635742,1.4111328,2.3447266,2.265625,3.5952148  c2.4863281,3.6367188,5.5810547,8.1621094,5.5810547,15.3095703v0.3847656  c-0.1212158-0.1172485-0.2756348-0.2021484-0.4570313-0.2163086c-0.3935547-0.0302734-9.6879883-0.8618164-13.8657227-10.7929688  c-3.7353516-8.8803711-3.6464844-20.3603516-3.5546875-23.2924805h8.2905273c0.2024536,0,0.3848267-0.0821533,0.5197754-0.2126465  C32.8563843,17.5549965,32.8071899,24.7756386,34.3341064,27.7202187z M41.8223877,48.9809608  c-0.0322266,0.0087891-3.4980469,0.699707-11.6079102-5.6948242c-8.0947266-6.3828125-9.7978516-25.4262695-9.7978516-28.9111328  c0-1.8500977-0.6230469-3.8818359-1.0615234-5.0834961h13.7285156c0.0842285,0,0.1618652-0.0223389,0.2374878-0.0479736  c-0.0494385,0.6429443-0.1026001,1.4041748-0.1524658,2.2501221c-0.1375122-0.170105-0.3391113-0.2856445-0.5747681-0.2856445  h-9.0102539c-0.3964844,0-0.7246094,0.309082-0.7485352,0.7050781c-0.034668,0.5717773-0.7929688,14.1289053,3.6401367,24.6694336  c4.5424805,10.7978516,15.0307617,11.6992188,15.1362305,11.7070313c0.0185547,0.0014648,0.0380859,0.0019531,0.0566406,0.0019531  c0.1972046,0,0.3777466-0.078125,0.5126953-0.2056274v0.9116211C42.0651855,48.9668617,41.9447632,48.953495,41.8223877,48.9809608z   M67.3928223,64.2133255l1.4785156,2.994812c-2.3864746,1.1820068-10.9775391,5.1663818-18.288208,5.1663818h-1.1660156  c-7.3039551,0-15.8860474-3.9771118-18.2820435-5.163208l1.5015869-2.9732056  c2.8659058,2.3348389,12.4945068,3.7203979,16.7804565,3.7203979h1.1660156  C54.8841553,67.9585037,64.5649414,66.563118,67.3928223,64.2133255z M69.1221924,75.3748245  c-1.2226563,1.0749512-7.7151489,6.3336792-17.7050781,6.3336792h-2.8339844  c-9.9644775,0-16.4788818-5.2606201-17.7050781-6.3349609v-6.6130371  c2.9425659,1.4351807,11.2020264,5.1140137,18.5390625,5.1140137h1.1660156c7.336853,0,15.5964966-3.6787109,18.5390625-5.1139526  V75.3748245z M72.4786377,86.502449c-3.0576172,2.9599609-10.1962891,6.1220703-21.0615234,6.1220703h-2.8339844  c-10.8642578,0-18.0029297-3.1621094-21.0615234-6.1220703c-1.9321289-1.8691406-1.7460938-4.9033203-1.6479492-5.7636719  l4.2686157-4.0146484c1.848877,1.5725098,8.421936,6.484375,18.4408569,6.484375h2.8339844  c10.0188599,0,16.5919189-4.9118042,18.4408569-6.484314l4.2681274,4.0145874  C74.2237549,81.5991287,74.4102783,84.6333084,72.4786377,86.502449z M66.7022705,62.7836952  c-0.5654297,1.5459023-9.9052734,3.6748085-16.1191406,3.6748085h-1.1660156c-6.213562,0-15.5526733-2.1286011-16.1160278-3.6550331  c0.000061-0.0007935,0.0004883-0.0015869,0.0006104-0.0023804c0.0948486-0.8824463,4.4613647-2.855835,9.4691772-4.3046875  c0.4103394,1.0755615,1.0488892,2.3300171,1.9567871,2.9855347l1.5,1.0839844  c0.1328125,0.0966797,0.2861328,0.1425781,0.4384766,0.1425781c0.2333984,0,0.4619141-0.1074219,0.6083984-0.3105469  c0.2431641-0.3359375,0.1679688-0.8046875-0.1679688-1.046875l-1.5-1.0849609  c-1.0068359-0.7265625-1.7128906-2.9833984-1.9257813-3.8925781v-9.7485352c0-7.6113281-3.2392578-12.3491211-5.8427734-16.15625  c-0.828125-1.2119141-1.6103516-2.3564453-2.171875-3.4389648c-1.9438477-3.7480469-0.9926758-16.1162109-0.7294922-19.097168  l14.7783203-0.5570679L65.0635986,7.933598c0.2636719,2.9814458,1.2138672,15.347168-0.7294922,19.0961914  c-0.5615234,1.0825195-1.34375,2.2270508-2.171875,3.4389648c-2.6035156,3.8071289-5.8427734,8.5449219-5.8427734,16.15625  v9.7495117c-0.2021484,0.8623047-0.921875,3.1669922-1.9257813,3.8925781l-1.5,1.0839844  c-0.3359375,0.2421875-0.4111328,0.7109375-0.1679688,1.046875c0.1464844,0.203125,0.375,0.3105469,0.6083984,0.3105469  c0.1523438,0,0.3056641-0.0458984,0.4384766-0.1425781l1.5-1.0830078c0.9078979-0.6560669,1.5464478-1.9107056,1.9567871-2.9863892  C62.1600342,59.9248695,66.6124878,61.9367104,66.7022705,62.7836952z M79.5831299,14.3750048  c0,3.4848623-1.703125,22.5292969-9.796875,28.9111328c-8.1054688,6.3891602-11.5751953,5.703125-11.5908203,5.6992188  c-0.1292114-0.0358887-0.2553101-0.0253906-0.3759766,0.0040283v-0.9035034  c0.1349487,0.1275024,0.3154907,0.2056274,0.5126953,0.2056274c0.0185547,0,0.0380859-0.0004883,0.0566406-0.0019531  c0.1054688-0.0078125,10.5947266-0.9091797,15.1357422-11.7070313c4.4335938-10.5400391,3.6757813-24.0976563,3.6416016-24.6694336  c-0.0244141-0.3959961-0.3525391-0.7050781-0.7490234-0.7050781h-9.0107422c-0.2358398,0-0.4375,0.1157837-0.5750122,0.2860718  c-0.0499268-0.8461914-0.1030273-1.607666-0.1524658-2.2507324c0.0758057,0.0257568,0.1537476,0.0481567,0.2382202,0.0481567  h13.7275391C80.2061768,10.4931688,79.5831299,12.5249071,79.5831299,14.3750048z" />
  <path fill="#f9d10b"
    d="M60.9464111,15.1728563c0.1484375,0.1616211,0.3505859,0.2436523,0.5537109,0.2436523  c0.1767578,0,0.3535156-0.0620117,0.4960938-0.1875l1.9375-1.7084961c0.1611328-0.1425781,0.2539063-0.347168,0.2539063-0.5625  v-2.1665039c0-0.2329102-0.1083984-0.4526367-0.2929688-0.5942383l-1.625-1.25  c-0.234375-0.1801758-0.5517578-0.2050781-0.8095703-0.0673828l-1.875,1  c-0.2451172,0.1303711-0.3974609,0.3847656-0.3974609,0.6616211v2.4165039c0,0.1875,0.0703125,0.3676758,0.1962891,0.5063477  L60.9464111,15.1728563z M60.6876221,10.991704l1.0507813-0.5610352l0.9492188,0.7299805v1.4589844l-1.1308594,0.9970703  l-0.8691406-0.949707V10.991704z" />
  <path fill="#f9d10b"
    d="M53.5001221,15.4165087c0.1767578,0,0.3535156-0.0620117,0.4960938-0.1875l1.9375-1.7084961  c0.1611328-0.1425781,0.2539063-0.347168,0.2539063-0.5625v-2.1665039c0-0.2329102-0.1083984-0.4526367-0.2929688-0.5942383  l-1.625-1.25c-0.2333984-0.1801758-0.5517578-0.2050781-0.8095703-0.0673828l-1.875,1  c-0.2451172,0.1303711-0.3974609,0.3847656-0.3974609,0.6616211v2.4165039c0,0.1875,0.0703125,0.3676758,0.1962891,0.5063477  l1.5625,1.7084961C53.0948486,15.3344774,53.2969971,15.4165087,53.5001221,15.4165087z M52.6876221,10.991704l1.0507813-0.5610352  l0.9492188,0.7299805v1.4589844l-1.1308594,0.9970703l-0.8691406-0.949707V10.991704z" />
  <path fill="#f9d10b"
    d="M55.1876221,17.5415077v2.4165039c0,0.1875,0.0703125,0.3676758,0.1962891,0.5063477l1.5625,1.7084961  c0.1484375,0.1616211,0.3505859,0.2436523,0.5537109,0.2436523c0.1767578,0,0.3535156-0.0620117,0.4960938-0.1875l1.9375-1.7084961  c0.1611328-0.1425781,0.2539063-0.347168,0.2539063-0.5625v-2.1665039c0-0.2329102-0.1083984-0.4526367-0.2929688-0.5942383  l-1.625-1.249999c-0.2333984-0.1806641-0.5517578-0.2060547-0.8095703-0.0673828l-1.875,0.999999  C55.3399658,17.0102577,55.1876221,17.2646523,55.1876221,17.5415077z M56.6876221,17.991703l1.0507813-0.5610352  l0.9492188,0.7299805v1.4589844l-1.1308594,0.9970703l-0.8691406-0.949707V17.991703z" />
</svg>
