<svg xmlns="http://www.w3.org/2000/svg" xmlns:xlink="http://www.w3.org/1999/xlink" version="1.1" x="0px" y="0px"
  viewBox="0 0 100 100" style="enable-background:new 0 0 100 100;" xml:space="preserve">
  <g>
    <path fill="#f9d10b"
      d="M76.3251953,9.4492188l-8.5009766,3.2355347c-4.5447998-1.7349243-11.7680054-2.1160889-15.7587891-2.1837769   c-0.0058594,0-0.0112305-0.0009766-0.0170898-0.0009766c-0.1020508-0.0019531-0.6069336-0.0136719-1.421875-0.0126953   c-0.800293,0.0009766-1.3193359,0.0107422-1.421875,0.0126953c-0.0058594,0-0.0112305,0.0009766-0.0170898,0.0009766   c-3.9907837,0.067688-11.2139893,0.4488525-15.7587891,2.1837769l-8.4814453-3.2277222   c-0.0537109-0.0214844-5.3115234-2.1972656-8.4926758,3.6367188c-3.1171875,5.7138672,4.6362305,13.0986328,6.4580078,14.1699219   c0.121582,0.0712891,0.4106445,0.2246094,0.8271484,0.4443359c11.0874023,5.8496094,12.6201172,8.3613281,12.546875,9.3378906   c-0.0001221,0.0014038,0.0006104,0.0026855,0.0004883,0.0040894c-0.0440674,3.3116455-0.0491943,6.2996826,0.0585938,6.9822388   c0.2700195,1.7128906,0.984375,6.2392578,7.0141602,9.6552734c0.8740234,2.0683594,0.003418,3.5742188-0.3481445,4.0595703   c-0.6274414,0.0087891-2.203125,0.1425781-3.2207031,1.1894531c-0.6210938,0.6396484-0.9204102,1.4892578-0.8916016,2.5302734   c-1.746582,1.0410156-3.690918,3.2734375-3.7773438,3.3730469c-0.0081787,0.0094604-0.0061646,0.0238647-0.0135498,0.0338135   c-0.0230713,0.0305786-0.0499878,0.0574951-0.06604,0.0941162c-0.0219116,0.0502319-0.0285034,0.102356-0.0333252,0.1541748   c-0.0007935,0.0079346-0.0083008,0.0136108-0.008667,0.0216064l-0.5742188,12.2226563l-1.6132813,1.6132813   c-0.0883789,0.0888672-2.1645508,2.1894531-1.9770508,4.1503906c0.1538086,1.6181641,0.0014648,2.3349609,0.0004883,2.3388672   c-0.0551758,0.2353516,0.0654297,0.4765625,0.2871094,0.5722656C31.3935547,86.1591797,37.8686523,88.9169922,50,88.9169922   h1.2529297c12.1313477,0,18.605957-2.7578125,18.8759766-2.8759766c0.21875-0.0947266,0.3393555-0.3359375,0.2875977-0.5693359   c-0.0014648-0.0068359-0.1533203-0.7236328,0.0004883-2.3408203c0.1875-1.9619141-1.8886719-4.0625-1.9770508-4.1513672   l-1.6132813-1.6132813l-0.5742188-12.2226563c-0.0003662-0.0079956-0.0078735-0.0136719-0.008667-0.0216064   c-0.0048218-0.0518188-0.0114136-0.1039429-0.0333252-0.1541748c-0.0161133-0.0371094-0.0432739-0.0645142-0.0665894-0.0953979   c-0.0071411-0.0095825-0.005188-0.0234375-0.0130005-0.0325317c-0.0864258-0.0996094-2.0307617-2.3320313-3.7773438-3.3730469   c0.0288086-1.0410156-0.2705078-1.890625-0.8916016-2.5302734c-1.0166016-1.0458984-2.5913086-1.1806641-3.2192383-1.1894531   c-0.3476563-0.4853516-1.21875-2.0009766-0.3496094-4.0595703c6.0297852-3.4160156,6.7441406-7.9423828,7.0200195-9.6923828   c0.1054688-0.6678467,0.0988159-3.6520996,0.0534668-6.9569702c-0.0653076-0.9815674,1.4859009-3.4946289,12.5466309-9.3301392   c0.4165039-0.2197266,0.7055664-0.3730469,0.8266602-0.4443359c1.8222656-1.0712891,9.5756836-8.4560547,6.4584961-14.1699219   C81.6171875,7.2607422,76.3579102,9.4355469,76.3251953,9.4492188z M24.2060547,26.8232422   c-0.3955078-0.2080078-0.6704102-0.3535156-0.7861328-0.4208984c-1.4697266-0.8642578-8.8544922-7.7568359-6.0874023-12.8300781   c2.7373047-5.0175781,7.0400391-3.2724609,7.2397461-3.1875l7.5489502,2.8731689   c-0.0334473,0.0172119-0.0716553,0.0322876-0.1046143,0.0496826c-0.1577148,0.0839844-0.2592773,0.2441406-0.2661133,0.4228516   c-0.0073242,0.1777344,0.0810547,0.3466797,0.2319336,0.4414063c0.4904785,0.3112793,0.9419556,0.8411255,1.3549194,1.513855   c-1.2033081-1.0951538-2.78479-2.3068237-4.3456421-2.8273315c-2.2993164-0.7666016-5.2773438-0.4560547-7.0791016,0.7382813   c-1.0527344,0.6972656-1.6557617,1.6591797-1.7446289,2.78125c-0.2695313,3.4169922,2.4462891,7.1044922,4.3374023,8.7490234   c1.7852783,1.5531616,10.3045044,6.9939575,11.8475952,7.9760132c-0.0115356,0.5927124-0.0227661,1.1986694-0.0332031,1.8096924   C34.6265869,32.8703613,30.670166,30.2339478,24.2060547,26.8232422z M36.3764648,31.9318237   c-2.3706055-1.5152588-9.6499634-6.1978149-11.2148438-7.5587769c-1.7382813-1.5117188-4.2373047-4.8681641-3.996582-7.9169922   c0.0644531-0.8154297,0.5014648-1.4970703,1.2998047-2.0253906c1.5415039-1.0205078,4.2099609-1.2929688,6.2104492-0.6230469   c2.5985718,0.8654175,5.423645,4.0202637,5.8926392,4.5588989c1.0646362,2.9467163,1.7138672,6.5564575,1.9320679,8.2868042   C36.4936523,26.8919678,36.4346313,29.1306152,36.3764648,31.9318237z M49.262207,54.1383057   C49.326355,54.1682129,49.3961792,54.1875,49.4716797,54.1875c0.3731079,0,0.7613525-0.0048218,1.1547852-0.0122681   C51.0198975,54.1826782,51.4081421,54.1875,51.78125,54.1875c0.0755005,0,0.1453247-0.0192871,0.2094727-0.0491943   c1.9048462-0.0657349,3.7628784-0.1821289,4.7722778-0.2513428c-0.5435791,1.7619019-0.0755615,3.1513062,0.3604736,3.9498291   c-1.3478394,0.1314697-4.109436,0.3755493-6.4968872,0.4316406c-2.3870239-0.0560913-5.1491089-0.3002319-6.4971313-0.4316406   c0.4360352-0.7985229,0.9040527-2.1879272,0.3604736-3.9498291C45.4993286,53.9561768,47.3573608,54.0725708,49.262207,54.1383057z    M49.6117554,67.276123c0.0266724,0.0043945,0.0507202,0.0158691,0.0786743,0.0158691   c0.3259888,0,0.6218872-0.0054321,0.9360352-0.0076294c0.3141479,0.0021973,0.6100464,0.0076294,0.9360352,0.0076294   c0.0279541,0,0.052002-0.0114746,0.0786743-0.0158691c8.3167114-0.121521,12.2234497-0.9968872,13.6434326-1.4220581   l0.5325928,11.3323975c-1.5443115,0.3335571-7.4877319,1.5010376-14.93927,1.5010376   c-0.09375,0-0.1765137,0.0327148-0.2514648,0.0775146C50.5515137,78.7202148,50.46875,78.6875,50.375,78.6875   c-7.4515381,0-13.3949585-1.1674805-14.93927-1.5010376l0.5325928-11.3323975   C37.3883057,66.2792358,41.2950439,67.1546021,49.6117554,67.276123z M69.3798828,85.2626953   c-1.4960938,0.5625-7.7548828,2.6542969-18.1269531,2.6542969H50c-10.3525391,0-16.6279297-2.0917969-18.1274414-2.6552734   c0.0385742-0.4150391,0.0625-1.1357422-0.0415039-2.2265625c-0.0560913-0.5876465,0.2098389-1.2542114,0.5559082-1.8494873   c1.628418,0.4788818,8.3672485,2.2723389,17.9880371,2.2723389c0.09375,0,0.1765137-0.0327148,0.2514648-0.0775146   c0.0749512,0.0447998,0.1577148,0.0775146,0.2514648,0.0775146c9.6229858,0,16.3627319-1.7943726,17.9893188-2.2727661   c0.34552,0.5946045,0.6109009,1.2611084,0.5546265,1.8508911C69.3178711,84.1259766,69.3417969,84.8476563,69.3798828,85.2626953z    M68.2770386,80.3146362c-1.9812012,0.5594482-8.3847656,2.1433716-17.3991089,2.1433716   c-0.09375,0-0.1765137,0.0327148-0.2514648,0.0775146C50.5515137,82.4907227,50.46875,82.4580078,50.375,82.4580078   c-9.0018921,0-15.4128418-1.5837402-17.3978882-2.1432495c0.2092285-0.2683105,0.4052124-0.4899902,0.5429077-0.6282349   l1.5549927-1.5549927C36.4015503,78.4239502,42.5791626,79.6875,50.375,79.6875c0.09375,0,0.1765137-0.0327148,0.2514648-0.0775146   C50.701416,79.6547852,50.7841797,79.6875,50.8779297,79.6875c7.7958374,0,13.9734497-1.2635498,15.2999878-1.5559692   l1.5549927,1.5549927C67.8708496,79.8244629,68.0673828,80.0461426,68.2770386,80.3146362z M64.859436,64.9326172   c-1.4900513,0.4203491-5.6246948,1.2906494-14.2329712,1.3517456c-8.6085815-0.0610962-12.7432251-0.9315186-14.2331543-1.3518066   c0.7015381-0.7441406,2.0003052-2.0297852,3.1318359-2.664917c0.8753662,0.107666,5.2537842,0.6207275,10.0235596,0.7457886   c0.0457764,0.0137939,0.0914307,0.0285645,0.1417236,0.0285645c0.3121338,0,0.6242676-0.0032959,0.9360352-0.0073242   c0.3117676,0.0040283,0.6239014,0.0073242,0.9360352,0.0073242c0.050293,0,0.0959473-0.0147705,0.1417236-0.0285645   c4.7698364-0.125061,9.1483765-0.6381836,10.0236206-0.7458496C62.8577271,62.9015503,64.1573486,64.1881104,64.859436,64.9326172z    M61.3428345,61.3062134c-1.3786621,0.1636353-5.9718018,0.666626-10.7163696,0.7283936   c-4.7445679-0.0617676-9.3377075-0.5647583-10.7163696-0.7283936c0.0079346-0.694458,0.1994019-1.260437,0.5952759-1.6694946   c0.932373-0.9622803,2.6484375-0.887085,2.7074585-0.8878174c0.1677856,0.0178833,3.2814941,0.352478,6.2662964,0.4819336   c0.0646973,0.0305176,0.1350098,0.050415,0.2113037,0.050415c0.3018799,0,0.6168213-0.005249,0.9360352-0.0126343   C50.9456787,59.276001,51.2606201,59.28125,51.5625,59.28125c0.0762939,0,0.1466064-0.0198975,0.2113037-0.050415   c2.9848022-0.1294556,6.0983887-0.4640503,6.2662964-0.4819336c0.0619507,0.0007935,1.7753906-0.074646,2.7074585,0.8878174   C61.1434326,60.0457764,61.3348999,60.6117554,61.3428345,61.3062134z M63.9194336,43.8769531   c-0.2501221,1.5862427-0.9169312,5.7842407-6.5725098,8.9666748c-0.6228027,0.0458374-3.8421021,0.2764282-6.720459,0.331543   c-2.8783569-0.0551147-6.0976563-0.2857056-6.720459-0.331543c-5.6555786-3.1824341-6.3223877-7.3806152-6.5788574-9.0047607   c-0.1987305-1.2617188,0.0571289-12.8134766,0.1689453-17.2333984c-0.0358276-0.2906494-0.6156616-4.8255005-1.9909058-8.6002808   c-0.0054321-0.020874-0.0149536-0.0396118-0.0231934-0.0598145c-0.6080322-1.6549683-1.367981-3.1602783-2.3057251-4.0859985   c4.8203125-2.1132813,13.9633789-2.3564453,17.4501953-2.3681641c3.4873047,0.0117188,12.6303711,0.2558594,17.4501953,2.3681641   c-0.9356079,0.9238892-1.6939087,2.4251099-2.3013916,4.078125c-0.010376,0.024292-0.0216675,0.0470581-0.0280151,0.0722656   c-1.3752441,3.7807007-1.9558105,8.331604-1.9943237,8.6708984C63.8686523,31.0253906,64.125,42.5771484,63.9194336,43.8769531z    M72.5776367,13.8076172c1.9985352-0.6689453,4.6689453-0.3984375,6.2104492,0.6230469   c0.7983398,0.5283203,1.2353516,1.2099609,1.2998047,2.0253906c0.2407227,3.0488281-2.2583008,6.4052734-3.996582,7.9169922   c-1.5650635,1.361145-8.8461304,6.0447388-11.2158203,7.5594482c-0.05896-2.7806396-0.1186523-4.9937134-0.1264648-5.2039795   c0.220459-1.7772217,0.8706665-5.4083252,1.9369507-8.3631592C67.1574097,17.8237305,69.9772949,14.6742554,72.5776367,13.8076172z    M77.8325195,26.4023438c-0.1152344,0.0673828-0.3901367,0.2128906-0.7856445,0.4208984   c-6.4639282,3.4106445-10.4203491,6.0469971-12.1135864,8.0892334c-0.0106812-0.611084-0.0221558-1.21698-0.0338745-1.8092041   c1.5419312-0.9812622,10.0627441-6.4230347,11.8481445-7.9763184c1.8911133-1.6445313,4.6069336-5.3320313,4.3374023-8.7490234   c-0.0888672-1.1220703-0.6918945-2.0839844-1.7446289-2.78125c-1.8022461-1.1943359-4.7797852-1.5048828-7.0791016-0.7382813   c-1.5610962,0.5206299-3.1428223,1.7325439-4.3462524,2.8278809c0.4130859-0.6730957,0.8648071-1.2030029,1.3555298-1.5144043   c0.1508789-0.0947266,0.2392578-0.2636719,0.2319336-0.4414063c-0.0068359-0.1787109-0.1083984-0.3388672-0.2661133-0.4228516   c-0.03302-0.0174561-0.071228-0.0325317-0.1046753-0.0497437l7.5685425-2.8809204   c0.1811523-0.0791016,4.4697266-1.8476563,7.2202148,3.1953125C86.6875,18.6455078,79.3027344,25.5380859,77.8325195,26.4023438z" />
  </g>
</svg>
