<svg xmlns="http://www.w3.org/2000/svg" xmlns:xlink="http://www.w3.org/1999/xlink" version="1.0" x="0px" y="0px"
  viewBox="0 0 100 100" enable-background="new 0 0 100 100" xml:space="preserve">
  <g>
    <g>
      <path fill="#f9d10b"
        d="M74.9179993,62.0928001c-0.4847031-8.544899-6.3005981-17.1498985-14.5566978-21.6892014    c0.1553001-0.6474991,0.2353973-1.5489998-0.1464996-2.4806976c-0.344902-0.8423004-0.9888-1.4097023-1.5689011-1.7742996    c4.926899-7.6469021,3.7844009-12.0151024,3.7300987-12.2043018c-0.078598-0.2754002-0.2705002-0.5028992-0.5283012-0.6268997    c-13.6469994-6.5615005-26.469799,2.7362995-27.008297,3.1357002c-0.2554016,0.1884995-0.4057999,0.487299-0.4053001,0.8046989    s0.1512985,0.6162014,0.4067001,0.8037014c4.2733002,3.1486988,6.2159004,6.6231003,6.8941994,8.0835991    c-0.549099,0.3976021-1.2178993,1.0116005-1.4943008,1.8079987c-0.2621002,0.7559013-0.2882004,1.6814003-0.2658997,2.3115005    c-10.1128998,5.1858025-17.9682999,17.696003-13.7644005,28.5870018c3.375,8.7411957,14.7397995,10.1063995,21.2134018,10.1425018    c0.2509995,0.0009995,0.5029984,0.0019989,0.7573967,0.0019989c8.2055016,0,18.0297012-0.797905,23.2504044-6.2919998    C73.9916992,70.0098038,75.1645966,66.4403992,74.9179993,62.0928001z M41.9726982,40.1436005    c-0.0131989-0.4804993,0.0097008-1.1084023,0.1577034-1.5341988c0.1107979-0.3203011,0.5424995-0.6973,0.9349976-0.9580002    c1.2424011,0.4620972,4.6869011,1.4794998,9.5428009,0.9049988c0.0004005,0,0.0006981,0.0001984,0.0006981,0.0001984    c0.0035019,0,0.0062027-0.0014,0.0093002-0.0014c1.4011002-0.1662979,2.9134026-0.4582977,4.5317001-0.9428978    c0.3970032,0.1767998,0.9976006,0.5400009,1.2144012,1.0683975c0.2041016,0.4990005,0.1201019,1.0361023,0.0223999,1.3818016    C50.1724014,42.4940987,43.8320007,40.7733994,41.9726982,40.1436005z M37.1528015,27.3262005    c3.2651978-1.9892998,13.1591988-7.0303001,23.355999-2.4267998c0.104599,1.1975002-0.0004005,4.9328995-3.9542007,10.7959003    c-0.9147987,0.2724991-1.7981987,0.4864998-2.6403999,0.6408005c0.2719994-1.4996033,0.4986-3.8614998-0.1906013-5.9289017    c-0.1742973-0.5233994-0.7386971-0.8085995-1.2650986-0.6317997c-0.5238991,0.1737995-0.8070984,0.7402-0.6323013,1.2646008    c0.6575012,1.9730988,0.2466011,4.4328995-0.0116997,5.5802002c-4.1717987,0.3796005-7.0956001-0.4990005-8.055397-0.8498993    C43.2406998,34.514801,41.4622993,30.8568993,37.1528015,27.3262005z M69.9819031,71.3262024    c-4.8540039,5.1092987-14.5796013,5.7118988-22.5468025,5.6679001c-5.964901-0.0332031-16.4112015-1.2285004-19.3584003-8.863205    c-3.1075001-8.0483971,1.3973999-20.3947983,13.0058002-26.1760979c1.1371994,0.4163017,4.2639008,1.387001,8.6948013,1.387001    c2.6621971,0,5.7985992-0.3582001,9.2524986-1.3901024c7.7498016,4.1052017,13.444397,12.3747025,13.891098,20.2544022    C73.1381989,66.0332031,72.1768036,69.0166016,69.9819031,71.3262024z" />
      <path fill="#f9d10b"
        d="M57.5508003,62.3134995c-0.535202-0.142601-1.0811005,0.1786995-1.2216988,0.7118988    c-0.7285004,2.7627029-3.6156998,5.1191025-7.1787033,4.2871017c-2.1685982-0.5073013-3.9361-2.2546005-4.5838966-4.4785004    h5.4832993c0.5522995,0,1-0.4473,1-1s-0.4477005-1-1-1h-5.8470001c-0.0704002-0.7509995-0.0865021-1.5387993-0.0275993-2.3223    h5.8745995c0.5522995,0,1-0.4472008,1-1c0-0.5527-0.4477005-1-1-1H44.5028    c0.1854019-0.7100983,0.4412003-1.3722,0.7882004-1.9325981c0.8793983-1.4219017,2.2860985-2.4491997,3.8593979-2.8174019    c3.564003-0.8330002,6.4512024,1.5234985,7.1787033,4.2871017c0.1405983,0.5331993,0.6864967,0.8515968,1.2216988,0.7118988    c0.533699-0.1406021,0.8530006-0.6875,0.7118988-1.2215996c-1.1078987-4.2061005-5.3101006-6.7237015-9.5683975-5.7246017    c-2.0869026,0.4882011-3.9472008,1.8418007-5.1040001,3.7119026c-0.5419998,0.8755989-0.8975029,1.9070969-1.1284027,2.9852982    h-2.7865982c-0.5522995,0-1,0.4473-1,1c0,0.5527992,0.4477005,1,1,1h2.5051003    c-0.0513992,0.7891006-0.0483017,1.5751991,0.0117989,2.3223h-2.5168991c-0.5522995,0-1,0.4473-1,1s0.4477005,1,1,1h2.8232002    c0.0172005,0.075901,0.0289993,0.1613998,0.0473976,0.235302c0.7622032,3.0644951,3.1758003,5.4951973,6.1484032,6.1905022    c0.6284981,0.1473999,1.2548981,0.2176971,1.8710976,0.2176971c3.5586014-0.0009003,6.7530022-2.3563995,7.6973-5.9423027    C58.403801,63.0009995,58.0849991,62.4541016,57.5508003,62.3134995z" />
    </g>
  </g>
</svg>
