<svg xmlns="http://www.w3.org/2000/svg" xmlns:xlink="http://www.w3.org/1999/xlink" version="1.1" x="0px" y="0px"
  viewBox="0 0 100 100" style="enable-background:new 0 0 100 100;" xml:space="preserve">
  <g>
    <path fill="#f9d10b"
      d="M38.21875,35.75c0.0039063,0,0.0078125,0,0.0117188,0L50.40625,35.4624634L62.581543,35.75   c0.0039063,0,0.0078125,0,0.0117188,0c0.2709961,0,0.4936523-0.2158203,0.5-0.4882813   c0.0063477-0.2763672-0.2119141-0.5048828-0.4882813-0.5117188l-11.982666-0.282959   c-0.0172729-0.0014038-0.032959-0.0095215-0.0505371-0.0090332L50.40625,34.4619141l-0.1655273-0.0039063   c-0.0181885-0.0001831-0.0328369,0.0075684-0.050415,0.0090332L38.2070313,34.75   c-0.2763672,0.0068359-0.4946289,0.2353516-0.4882813,0.5117188C37.7250977,35.5341797,37.9477539,35.75,38.21875,35.75z" />
    <path fill="#f9d10b"
      d="M73.9754639,26.2490234c0.000061-0.0007324,0.0005493-0.0012207,0.0006104-0.0019531   c0.0016479-0.0136719-0.0036621-0.0259399-0.0031128-0.0394287c-0.0720215-1.2443237-0.1605835-1.9465332-0.1658325-1.9840088   c-0.0356445-0.2558594-0.2734375-0.4658203-0.5180664-0.4306641l-13.5617676,0.6240234h-0.4326172l1.1945801-3.6657715   c0.0029907-0.0114746,0.0100098-0.0206909,0.012207-0.0324707c0.0003052-0.0016479-0.0003662-0.0031738-0.000061-0.0048218   l2.8018799-8.5982666c0.0311279,0.00177,0.0606689,0.0093384,0.0922241,0.0093384   c0.9189453,0,1.6665039-0.7480469,1.6665039-1.6669922s-0.7475586-1.6660156-1.6665039-1.6660156   s-1.6665039,0.7470703-1.6665039,1.6660156c0,0.4602051,0.1876221,0.8774414,0.4902344,1.1794434l-2.2944336,2.302002   l-1.3408203-3.5884399C59.2894287,10.1570435,59.8120117,9.5162354,59.8120117,8.75   c0-0.9189453-0.7475586-1.6669922-1.6665039-1.6669922S56.4790039,7.8310547,56.4790039,8.75   c0,0.5164185,0.2410278,0.9730225,0.6109009,1.2790527l-2.5254517,2.9338379l-2.7202759-3.9539795   c0.1345825-0.2404175,0.2178345-0.5132446,0.2178345-0.8077393c0-0.9189453-0.7475586-1.6669922-1.6665039-1.6669922   s-1.6665039,0.7480469-1.6665039,1.6669922c0,0.2994385,0.0856934,0.5768433,0.2244873,0.8200073l-2.7059326,3.9417114   l-2.5253906-2.9337158C44.0922241,9.7230835,44.3334961,9.2664185,44.3334961,8.75   c0-0.9189453-0.7480469-1.6669922-1.6669922-1.6669922S41,7.8310547,41,8.75c0,0.7662354,0.522583,1.4069824,1.2280884,1.6010132   l-1.3403931,3.5884399l-2.2947998-2.3019409c0.3027954-0.302002,0.4906006-0.7192383,0.4906006-1.1795044   c0-0.9189453-0.7480469-1.6660156-1.6669922-1.6660156S35.75,9.5390625,35.75,10.4580078S36.4975586,12.125,37.4165039,12.125   c0.0315552,0,0.0610962-0.0075684,0.0922241-0.0093384l2.8018799,8.5981445   c0.0001221,0.0006714-0.0001831,0.0013428-0.000061,0.0020142c0.0010376,0.0058594,0.0046997,0.0103149,0.0059204,0.0160522   l1.2008667,3.6851196h-0.4321289l-13.5622559-0.6240234c-0.2543945-0.0224609-0.4824219,0.1748047-0.5180664,0.4306641   c-0.005188,0.0372314-0.0925903,0.7304077-0.1643066,1.958313c-0.0003052,0.0220947-0.0078735,0.0425415-0.005127,0.0651245   c0.0001221,0.0012207,0.0009155,0.0020752,0.0010986,0.0032959c-0.3359375,5.9019165-0.2724609,23.9938354,10.6077881,44.25354   c3.8826294,6.5756836,5.1725464,8.2595215,5.5261841,8.6657104c-2.5421753,1.9226074-5.5386963,5.0549316-8.2859497,10.1555786   c-0.0030518,0.0057373-0.0023193,0.0124512-0.005127,0.0182495c-0.022644,0.0461426-0.0336304,0.0958252-0.0412598,0.1469727   c-0.0025635,0.0170898-0.010437,0.0327759-0.0112305,0.0499878c-0.0030518,0.0675659,0.0061646,0.1365967,0.0322266,0.2037354   l0.0014038,0.0036621c0.000061,0.000061,0,0.0001831,0.000061,0.0002441c0,0.000061,0.0001221,0.0001221,0.0001221,0.0001831   l1.0203857,2.6209106c0.0625,0.1601563,0.2036133,0.2773438,0.3725586,0.3095703C36.230957,92.7119141,40.484375,93.5,48.625,93.5   h3.5620117c8.140625,0,12.3945313-0.7880859,12.5717773-0.8212891c0.1694336-0.0322266,0.3100586-0.1494141,0.3725586-0.3095703   l1.0198975-2.6209106c0-0.000061,0.0001221-0.0001221,0.0001221-0.0001831c0.000061-0.000061,0-0.0001831,0.000061-0.0002441   l0.0014038-0.0036621c0.026062-0.0670776,0.0352783-0.1360474,0.0322266-0.2035522   c-0.0007935-0.0180054-0.0090942-0.0344849-0.0118408-0.0523071c-0.0077515-0.0502319-0.0183105-0.098877-0.0404663-0.144165   c-0.0029297-0.0060425-0.0021362-0.0130005-0.0053101-0.0189209c-2.7466431-5.1008301-5.7435913-8.2332153-8.2861328-10.1553955   c0.3536377-0.4061279,1.6445923-2.0917969,5.5361328-8.6834717C74.2504272,50.239624,74.3117676,32.1490479,73.9754639,26.2490234z    M63.3955078,9.7919922c0.3676758,0,0.6665039,0.2988281,0.6665039,0.6660156c0,0.3681641-0.2988281,0.6669922-0.6665039,0.6669922   s-0.6665039-0.2988281-0.6665039-0.6669922C62.7290039,10.0908203,63.027832,9.7919922,63.3955078,9.7919922z M36.75,10.4580078   c0-0.3671875,0.2988281-0.6660156,0.6665039-0.6660156s0.6669922,0.2988281,0.6669922,0.6660156   c0,0.3681641-0.2993164,0.6669922-0.6669922,0.6669922S36.75,10.8261719,36.75,10.4580078z M72.9355469,25.6303101   c-1.3391724-0.1115112-4.3881836-0.2327881-5.5810547,0.8296509c-0.4067383,0.3623047-0.409668,0.7021484-0.3408203,0.9238281   c0.199707,0.6386719,1.1416016,0.8027344,2.4506836,0.9638672c0.206543,0.0253906,0.3847656,0.046875,0.5043945,0.0693359   c0.2480469,0.046875,0.3623047,0.1464844,0.3735352,0.1738281C70.3461914,28.625,70.284668,28.8125,69.9150391,29.1113281   c-0.5546875,0.4462891-2.1533203,0.0625-3.2055664-0.3769531c-1.1538086-2.0810547-2.0478516-3.1542969-2.6577148-3.1914063   c-0.793457-0.0683594-1.7724609,1.4179688-2.4316406,2.6601563c-0.1293945,0.2441406-0.0361328,0.546875,0.2075195,0.6757813   c0.1305542,0.0700073,0.276123,0.0713501,0.4047241,0.0241089c-0.015686,0.0244141-0.0367432,0.0438232-0.0482788,0.0715942   c-0.1064453,0.2548828,0.0141602,0.5478516,0.269043,0.6542969c0.2641602,0.1103516,0.5405273,0.25,0.7514648,0.3759766   c-0.8153076,0.2283936-2.2072144,0.4892578-2.8474731,0.6000366c-0.0895996-0.0157471-0.180542-0.027771-0.2745972-0.027771   c-0.7852173,0-1.4348145,0.5736084-1.562439,1.3233032l-1.2122803-0.7751465l0.7548218-5.708313h1.6663818   c0.0037231,0,0.0068359-0.0020752,0.0105591-0.0021362c0.0043945-0.0004883,0.0079956,0.0018311,0.0123901,0.0011597   l13.1147461-0.6025391C72.8867798,25.0185547,72.9110107,25.2935181,72.9355469,25.6303101z M50.7549438,32.7792358   c-0.0611572-0.0223999-0.1266479-0.0316162-0.1934204-0.0223999l-0.1552734,0.006897l-0.1552734-0.006897   c-0.0657959-0.0083618-0.1306152,0.0004272-0.1911011,0.0222778l-7.8305664,0.3478394l2.0097656-1.2850342   c0.505249-0.1177979,3.5643311-0.8081055,6.1670532-0.8388062c2.6000977,0.0307007,5.6616211,0.7210693,6.1668701,0.8388062   l2.0097046,1.2849731L50.7549438,32.7792358z M40.7294922,31.5771484c0.3251953,0,0.5898438,0.2646484,0.5898438,0.5898438   c0,0.3242188-0.2646484,0.5888672-0.5898438,0.5888672s-0.5893555-0.2646484-0.5893555-0.5888672   C40.1401367,31.8417969,40.4042969,31.5771484,40.7294922,31.5771484z M50.2290039,25.4169922h0.3544922h6.4706421   l-0.7073364,5.3488159c-1.0592651-0.2313843-3.4935913-0.7074585-5.7307129-0.7592163   C50.6047363,30.0057983,50.5950317,30,50.5834961,30c-0.0585327,0-0.1183472,0.0023193-0.1772461,0.0029907   C50.3473511,30.0023193,50.2875366,30,50.2290039,30c-0.0115356,0-0.0212402,0.0057983-0.0325928,0.0065918   c-2.2374268,0.0517578-4.671936,0.527832-5.7312012,0.7592163l-0.7073364-5.3488159H50.2290039z M60.0825195,32.7558594   c-0.3251953,0-0.5893555-0.2646484-0.5893555-0.5888672c0-0.3251953,0.2641602-0.5898438,0.5893555-0.5898438   s0.5893555,0.2646484,0.5893555,0.5898438C60.671875,32.4912109,60.4077148,32.7558594,60.0825195,32.7558594z    M50.4041748,22.3310547c-3.6019897-0.0532227-7.1881714,0.2901001-8.3782349,0.4174194l-0.5597534-1.7174683   c1.3474731-0.194458,4.9281006-0.6252441,9.0006104-0.4060059c0.0093994,0.0007935,0.0179443-0.0038452,0.0272827-0.0036621   c0.0095825-0.0001221,0.0177002,0.0043335,0.0274048,0.0036621c4.0452881-0.2183838,7.5096436,0.2081299,8.8250732,0.4031982   l-0.5604248,1.7199097C57.5952759,22.6203003,54.005188,22.2767944,50.4041748,22.3310547z M40.8675537,19.1942749   l2.9127197-3.8407593l2.8969727,2.9052734c0.1025391,0.1025391,0.2426758,0.1572266,0.3901367,0.1464844   c0.1450195-0.0107422,0.277832-0.0839844,0.3647461-0.2001953l2.9373779-3.9445801l3.0137939,3.9494629   c0.0874023,0.1142578,0.2202148,0.1855469,0.3642578,0.1953125c0.1494141,0.0126953,0.2851563-0.0439453,0.387207-0.1464844   l2.8969727-2.9052734l2.9126587,3.8400879l-0.28302,0.8685303c-1.2143555-0.1928101-4.8174438-0.6746216-9.1676636-0.4363403   c-4.3125-0.2312622-8.0958252,0.25354-9.34198,0.4403076L40.8675537,19.1942749z M58.1455078,8.0830078   c0.3676758,0,0.6665039,0.2988281,0.6665039,0.6669922s-0.2988281,0.6669922-0.6665039,0.6669922   S57.4790039,9.1181641,57.4790039,8.75S57.777832,8.0830078,58.1455078,8.0830078z M50.3955078,7.5341797   c0.3676758,0,0.6665039,0.2988281,0.6665039,0.6669922s-0.2988281,0.6669922-0.6665039,0.6669922   s-0.6665039-0.2988281-0.6665039-0.6669922S50.027832,7.5341797,50.3955078,7.5341797z M42,8.75   c0-0.3681641,0.2988281-0.6669922,0.6665039-0.6669922S43.3334961,8.3818359,43.3334961,8.75   s-0.2993164,0.6669922-0.6669922,0.6669922S42,9.1181641,42,8.75z M40.7294922,15.1962891   c0.1201172,0.1210938,0.293457,0.1708984,0.4599609,0.1357422c0.1660156-0.0351563,0.3027344-0.1542969,0.3623047-0.3134766   l1.5571289-4.1689453l2.8041992,3.2578125c0.1010742,0.1171875,0.2451172,0.1904297,0.40625,0.1728516   c0.1547852-0.0078125,0.296875-0.0878906,0.3847656-0.2158203l2.9907227-4.3561401   c0.2137451,0.0999146,0.449585,0.1598511,0.7006836,0.1598511c0.2555542,0,0.4950562-0.0625,0.711731-0.1658325   l3.0006714,4.3621216c0.0878906,0.1279297,0.2304688,0.2080078,0.3852539,0.2158203   c0.1513672,0.0195313,0.3046875-0.0556641,0.4057617-0.1728516l2.8041992-3.2578125l1.5576172,4.1689453   c0.0595703,0.1601563,0.1962891,0.2783203,0.3623047,0.3134766c0.168457,0.0371094,0.340332-0.0136719,0.4599609-0.1357422   L61.8125,13.4609375l-1.4910278,4.5756226l-2.8400269-3.7445679c-0.0874023-0.1152344-0.2202148-0.1875-0.3647461-0.1972656   c-0.1489258-0.0166016-0.2856445,0.0439453-0.3876953,0.1464844l-2.8979492,2.90625l-3.0688477-4.0214844   c-0.0145874-0.019165-0.0354614-0.0292969-0.0521851-0.0457764c-0.0166626-0.0166016-0.0270386-0.0374146-0.0464478-0.0518799   c-0.0083008-0.0061035-0.0183716-0.007019-0.0269165-0.0125732c-0.0310669-0.0204468-0.0639648-0.032959-0.0982666-0.0458374   c-0.0262451-0.0098267-0.0510254-0.0213013-0.078125-0.0264893c-0.0362549-0.0072021-0.0719604-0.0060425-0.1090088-0.0050659   c-0.0269775,0.0007935-0.0530396-0.0004272-0.0795898,0.0046387c-0.0337524,0.0064087-0.0646973,0.0202637-0.0970459,0.0338745   c-0.0293579,0.012207-0.0576782,0.0235596-0.0845947,0.0413818c-0.0090332,0.0060425-0.0197754,0.0072632-0.0285034,0.0139771   c-0.0193481,0.0147705-0.029541,0.0357666-0.0460815,0.0526123c-0.0164795,0.0165405-0.0371704,0.0267944-0.0515747,0.0460205   l-2.987793,4.0117188l-2.8930664-2.9013672c-0.1020508-0.1025391-0.246582-0.1621094-0.3876953-0.1464844   c-0.1445313,0.0097656-0.2773438,0.0820313-0.3647461,0.1972656l-2.8400879,3.7451782l-1.4914551-4.5762329L40.7294922,15.1962891z    M42.3426514,23.7202759c1.3154297-0.1359863,4.5761108-0.428772,7.8821411-0.3908691   c0.0048218,0.0007324,0.008606,0.0029297,0.0134888,0.0036011c0.0566406-0.0010376,0.1131592-0.0008545,0.1697998-0.001709   c0.0554199,0.0008545,0.1107178,0.0006714,0.1661377,0.001709c0.0029297,0,0.0063477,0,0.0092773,0   c0.0065308,0,0.0120239-0.003418,0.0184937-0.0036621c3.3001709-0.0362549,6.5535889,0.2555542,7.8673096,0.3910522   l-0.2269897,0.6965942h-7.6588135h-0.3544922h-7.6593018L42.3426514,23.7202759z M41.0605469,25.4160156   c0.0045166,0.0007324,0.0082397-0.0016479,0.0127563-0.0010986c0.0036011,0.000061,0.0065918,0.0020752,0.0101929,0.0020752   h1.6658936l0.7548218,5.708313l-1.211853,0.7748413c-0.1278076-0.7495728-0.777771-1.322998-1.5628662-1.322998   c-0.0939941,0-0.1849976,0.0120239-0.2745361,0.027771c-0.6376953-0.1099243-2.020813-0.3689575-2.8460693-0.6010132   c0.2109375-0.125,0.4863281-0.265625,0.75-0.375c0.2548828-0.1064453,0.3754883-0.3994141,0.269043-0.6542969   c-0.0115967-0.0278931-0.0327148-0.0473022-0.0484619-0.0717773c0.128418,0.0470581,0.2738647,0.0455322,0.4049072-0.0239258   c0.2436523-0.1289063,0.3369141-0.4316406,0.2075195-0.6757813c-0.6586914-1.2421875-1.6298828-2.7226563-2.4311523-2.6601563   c-0.6103516,0.0371094-1.5039063,1.1103516-2.6577148,3.1914063c-1.0532227,0.4394531-2.6513672,0.8222656-3.2055664,0.3769531   C30.527832,28.8125,30.4663086,28.625,30.4692383,28.5927734c0.0117188-0.0292969,0.1264648-0.1289063,0.3735352-0.1757813   c0.1201172-0.0224609,0.2983398-0.0439453,0.5048828-0.0693359c1.309082-0.1611328,2.2509766-0.3242188,2.4506836-0.9638672   c0.0693359-0.2216797,0.0664063-0.5615234-0.3408203-0.9238281c-1.1917114-1.0625-4.2415771-0.9404907-5.5810547-0.8292847   c0.0245361-0.3369141,0.0487671-0.6120605,0.0688477-0.8171997L41.0605469,25.4160156z M27.8589478,33.5512085   c0.7210693-0.5164185,4.4899902-2.993042,7.8397827-0.9574585c0.2358398,0.1455078,0.5429688,0.0693359,0.6870117-0.1669922   c0.1435547-0.2353516,0.0683594-0.5429688-0.1674805-0.6865234c-3.3725586-2.052124-6.9432983-0.2828369-8.4152222,0.6443481   c-0.0971069-2.4247437-0.0568237-4.3734741,0.012146-5.7440186c1.5489502-0.1427002,3.8244629-0.1283569,4.8215332,0.4717407   c-0.3994141,0.1181641-1.1025391,0.2050781-1.4111328,0.2431641c-0.2324219,0.0283203-0.4331055,0.0537109-0.5688477,0.0791016   c-0.6103516,0.1162109-1.0424805,0.4580078-1.1572266,0.9140625c-0.0874023,0.3486328-0.0249023,0.8984375,0.7695313,1.5400391   c0.3803711,0.3076172,0.8930664,0.4179688,1.434082,0.4179688c1.2875977,0,2.7382813-0.6259766,2.9594727-0.7255859   c0.0996094-0.0439453,0.1821289-0.1201172,0.234375-0.2158203c0.6459961-1.1796875,1.5405273-2.5283203,1.9238281-2.7998047   c0.3051758,0.1953125,0.9707031,1.1318359,1.4873047,2.1064453c0.0060425,0.0114136,0.0168457,0.0180054,0.0236206,0.0287476   c-0.1122437-0.0392456-0.2380371-0.0432739-0.357605,0.0044556c-1.6826172,0.7011719-1.6787109,1.2441406-1.6772461,1.4228516   c0.0009766,0.1396484,0.0532227,0.484375,0.5170898,0.6689453c0.5266724,0.2108765,1.6717529,0.4546509,2.5231323,0.6193848   c-0.121582,0.2246094-0.1969604,0.4777832-0.1969604,0.7507324c0,0.4171143,0.1650391,0.7943115,0.4290161,1.078125   l-0.1326294,0.0058594c-0.2758789,0.0117188-0.4897461,0.2451172-0.4775391,0.5214844   C38.9707031,34.0400391,39.1923828,34.25,39.4580078,34.25c0.0078125,0,0.0151367,0,0.0224609-0.0009766L50.40625,33.7637329   l10.9257813,0.4852905C61.3393555,34.25,61.3466797,34.25,61.3544922,34.25c0.265625,0,0.4873047-0.2099609,0.4990234-0.4775391   c0.012207-0.2763672-0.2016602-0.5097656-0.4775391-0.5214844l-0.1330566-0.0059204   c0.2639771-0.2838135,0.4289551-0.6609497,0.4289551-1.078064c0-0.2729492-0.0753174-0.526062-0.1968994-0.7506714   c0.8513184-0.1647339,1.9963989-0.4085083,2.522583-0.6194458c0.4643555-0.1845703,0.5166016-0.5292969,0.5175781-0.6689453   c0.0014648-0.1787109,0.0053711-0.7216797-1.6772461-1.4228516c-0.1195679-0.0477295-0.2453613-0.0437012-0.357605-0.0044556   c0.0067749-0.0107422,0.0175781-0.017334,0.0236206-0.0287476c0.5161133-0.9736328,1.1811523-1.9101563,1.4868164-2.1064453   c0.3544922,0.2539063,1.2026367,1.4824219,1.9248047,2.7998047c0.0522461,0.0957031,0.1347656,0.171875,0.234375,0.2158203   c0.2211914,0.0996094,1.6713867,0.7255859,2.9589844,0.7255859c0.5415039,0,1.0541992-0.1103516,1.4345703-0.4179688   c0.7939453-0.6416016,0.8564453-1.1914063,0.769043-1.5400391c-0.1147461-0.4560547-0.546875-0.7978516-1.1577148-0.9140625   c-0.1347656-0.0253906-0.3354492-0.0507813-0.5683594-0.0791016c-0.3144531-0.0390625-1.0390625-0.1279297-1.4335938-0.2509766   c0.9041138-0.5943604,3.2542114-0.6083984,4.8440552-0.4632568c0.0690308,1.3706665,0.109436,3.319397,0.0125122,5.7438354   c-1.4718018-0.927124-5.0435181-2.6973267-8.4151611-0.6448364c-0.2358398,0.1435547-0.3110352,0.4511719-0.1674805,0.6865234   c0.1445313,0.2363281,0.4511719,0.3125,0.6870117,0.1669922c3.3413696-2.0308228,7.117981,0.4432373,7.8397827,0.9580078   c-0.4703979,8.4657593-2.6298218,21.8864746-10.4472046,36.4443359c-0.1033936,0.1751709-0.1957397,0.3295288-0.2954712,0.4976807   l-5.7289429,6.7247925c4.3890381-9.7718506,7.2003174-19.5549316,8.3266602-29.0974731   c1.1928711-10.1083984-1.3422852-11.7792969-1.6352539-11.9365234c-0.005127-0.0028076-0.0108032-0.0023804-0.0159912-0.0049438   c-0.0285034-0.0141602-0.0602417-0.0195923-0.0915527-0.0281982c-0.0319214-0.0085449-0.0628052-0.0194702-0.0949707-0.0212402   c-0.0081177-0.0005493-0.0148926-0.0050049-0.0230713-0.005188c-0.06604-0.0009766-6.553894-0.1394043-12.3616333-0.1449585   c-0.0009155,0-0.001709-0.0005493-0.0026245-0.0005493c-0.0586548,0-0.1184082,0.0002441-0.1772461,0.0002441   c-0.0587769,0-0.1185913-0.0002441-0.1772461-0.0002441c-0.0009155,0-0.001709,0.0005493-0.0026245,0.0005493   C44.4181519,35.9855957,37.9302979,36.1240234,37.8642578,36.125c-0.0070801,0.0001221-0.0129395,0.0040283-0.0199585,0.0044556   c-0.0288696,0.0016479-0.0562134,0.012207-0.0847778,0.0189819c-0.0363159,0.0088501-0.0725708,0.0152588-0.1052246,0.0314941   c-0.0050659,0.0024414-0.0106201,0.0020142-0.015625,0.0046387c-0.2929688,0.1572266-2.828125,1.828125-1.6352539,11.9365234   c1.1262817,9.5421753,3.9373779,19.3249512,8.3261719,29.0964355l-5.7305298-6.7261353   c-0.0958252-0.1616821-0.1843262-0.3095703-0.2836304-0.4777222   C30.4918213,55.4446411,28.3301392,42.0186768,27.8589478,33.5512085z M45.5620117,77.4960938   c-0.0043945,0.0023804-0.0092163,0.005188-0.0136108,0.0075684c-4.5281982-9.9102783-7.4110718-19.8320923-8.5518188-29.4997559   c-0.9942017-8.425293,0.6847534-10.5279541,1.0570068-10.8825073c1.0244751-0.0213623,7.0030518-0.1390991,12.3526611-0.1416626   c5.3496094,0.0025635,11.3286133,0.1203003,12.352417,0.1416626c0.3728638,0.3557129,2.0507202,2.4605713,1.0567627,10.8825073   c-1.1407471,9.6679688-4.0237427,19.5900269-8.5521851,29.5005493c-0.0042725-0.0023193-0.0089722-0.0050659-0.0132446-0.0073853   C52.3535156,75.9462891,48.4584961,75.9482422,45.5620117,77.4960938z M43.7631836,78.5566406   c-0.0253906-0.0250854-0.4265137-0.4413452-1.8042603-2.5803833l2.0765991,2.4373779   c-0.085083,0.0563965-0.1685791,0.1096802-0.2550659,0.1689453C43.7734375,78.574585,43.770813,78.56427,43.7631836,78.5566406z    M64.3022461,91.7421875C63.2426758,91.9121094,59.0898438,92.5,52.1870117,92.5H48.625   c-6.902832,0-11.0551758-0.5878906-12.1147461-0.7578125l-0.5639648-1.4483643   C39.980835,91.1924438,48.2388306,91.3080444,48.625,91.3125h3.5683594   c0.3803711-0.0044556,8.6381226-0.1199951,12.6725464-1.0186768L64.3022461,91.7421875z M64.9472656,89.2529297   c-3.769043,0.9365234-12.6713867,1.0585938-12.7602539,1.0595703h-3.5556641   c-0.0947266-0.0009766-8.9970703-0.1230469-12.7666016-1.0595703c3.5625-6.3876953,7.4785156-9.4365234,10.1689453-10.875   c2.6074219-1.3945313,6.137207-1.3945313,8.7446289,0c0,0.0009766,0,0.0009766,0,0.0009766   C57.4692383,79.8164063,61.3852539,82.8652344,64.9472656,89.2529297z M56.7764893,78.4141846l2.0751343-2.435791   c-1.3759155,2.1369019-1.7736206,2.5495605-1.7925415,2.5684814c-0.0116577,0.0106812-0.0164185,0.0252075-0.0268555,0.0366821   C56.9454956,78.5241699,56.8618164,78.4707642,56.7764893,78.4141846z" />
  </g>
</svg>
