<svg xmlns="http://www.w3.org/2000/svg" xmlns:xlink="http://www.w3.org/1999/xlink" version="1.1" x="0px" y="0px"
  viewBox="0 0 100 100" style="enable-background:new 0 0 100 100;" xml:space="preserve">
  <g>
    <path fill="#f9d10b"
      d="M76.644043,10.8320313c-5.9682617-3.953125-23.5390625-3.9990234-24.2895508-3.9990234   c-0.7451172,0-18.3164063,0.0458984-24.2836914,3.9990234c-1.2290039,0.8134766-1.5820313,2.4394531-0.8037109,3.7011719   c0.3046875,0.4931641,0.5883789,0.8574219,0.5976563,0.8681641L44.449707,35.4462891   c0.1586914,2.1357422,1.09375,14.4160156,1.824707,17.6357422c-0.6201172,0.125-1.4462891,0.4326172-1.4462891,1.1835938   c0,0.0083008,0.0046997,0.0158081,0.0050049,0.0240479c0.0004272,0.0089111-0.003479,0.0167847-0.0025635,0.0257568   c0.0068359,0.0654297,0.6484375,6.5869141-0.4726563,10.0302734c-0.0581055,0.1787109-0.0112305,0.375,0.1220703,0.5078125   c0.9669189,0.9673462,2.2572021,1.5203857,3.4976196,1.8481445c-3.8071289,0.5408325-10.600708,1.9102783-10.5598145,4.7919312   c0,0.0022583-0.0012817,0.0041504-0.0012817,0.0064087l-0.0004883,7.4121094   c-0.0001221,0.0103149,0.0012817,0.0614014,0.0033569,0.1154785c-0.3616333,0.4309082-1.3375244,1.7241821-1.3125,3.0856323   c-0.0001221,0.0041504-0.0023804,0.0075684-0.0023804,0.0117798v4.90625c0,0.0878906,0.0229492,0.1738281,0.0668945,0.25   C36.3022461,87.5078125,39.5214844,92.8330078,52,92.8330078h0.7143555c12.4780273,0,15.6977539-5.3251953,15.8286133-5.5517578   c0.0439453-0.0761719,0.0668945-0.1621094,0.0668945-0.25V82.125c0-0.0045166-0.0024414-0.0081787-0.0025635-0.0126343   c0.024353-1.3610229-0.9509277-2.6536255-1.3126221-3.0845947c0.0018921-0.0508423,0.0032959-0.1012573,0.0031738-0.1107788   L67.2973633,71.5c0-0.0022583-0.0012817-0.0040894-0.0012817-0.0063477   c0.0413208-2.8760376-6.725769-4.2457886-10.5371094-4.7887573c1.2341309-0.3285522,2.5151367-0.8911133,3.4754028-1.8513794   c0.1333008-0.1328125,0.1801758-0.3291016,0.1220703-0.5078125c-1.1201172-3.4414063-0.4794922-9.9648438-0.4726563-10.0302734   c0.0009155-0.0089722-0.0029907-0.0168457-0.0025635-0.0257568c0.0003052-0.0082397,0.0050049-0.0157471,0.0050049-0.0240479   c0-0.7509766-0.8266602-1.0585938-1.4467773-1.1835938c0.730957-3.2197266,1.6665039-15.5,1.8251953-17.6357422   L76.8588867,15.390625c0,0,0.2836914-0.3642578,0.5874023-0.8574219   C78.2250977,13.2714844,77.8725586,11.6464844,76.644043,10.8320313z M50.6665039,67.1256714   c0.3336182,0.0195313,0.6368408,0.0305786,0.8564453,0.0305786c0.2753906,0,0.4467773-0.0087891,0.4770508-0.0107422   l0.6860352-0.0009766c0.0637817,0.0031128,0.5915527,0.0292969,1.3613281-0.0167236v3.6153564   c-0.359375,0.0585938-0.8876953,0.1445313-1.3330078,0.2148438l-0.6401367,0.0058594   c-0.4916992-0.0742188-1.0410156-0.1621094-1.4077148-0.2216797V67.1256714z M66.2974854,73.149292l0.0003662,5.772583   c0,0.0214844-0.0014648,2.203125-2.015625,4.2382813c-2.3037109,2.3271484-6.1958008,3.5068359-11.5678711,3.5068359H52   c-5.3544922,0-9.2392578-1.1728516-11.5458984-3.484375c-2.0200195-2.0244141-2.0380859-4.2402344-2.0380859-4.265625   l0.0003662-5.7680054C41.3642578,75.4475708,49.9711304,76.1890259,52,76.3330078l0.75-0.0009766   C54.7492676,76.1888428,63.3503418,75.4476318,66.2974854,73.149292z M52.7143555,91.8330078H52   c-10.9013672,0-14.3901367-4.2441406-14.8955078-4.9521484v-2.4990234C38.8441772,86.7404785,42.8397827,89.65625,52,89.65625   h0.7143555c9.1602173,0,13.1558228-2.9157715,14.8955078-5.2744141v2.5009766   C67.109375,87.5966797,63.6728516,91.8330078,52.7143555,91.8330078z M67.4545898,82.7451172   C66.3510742,84.953125,62.9682617,88.65625,52.7143555,88.65625H52c-10.2539063,0-13.6367188-3.703125-14.7402344-5.9111328   c-0.382019-0.7640381,0.0036621-1.6820068,0.4058228-2.3388062c0.270874,0.9526367,0.8370361,2.2267456,2.0560913,3.4579468   C42.2197266,86.3876953,46.3510742,87.6669922,52,87.6669922h0.7143555c5.6489258,0,9.7797852-1.2792969,12.2783203-3.8027344   c1.2189941-1.2314453,1.7850342-2.5056763,2.0557861-3.4577026C67.4506226,81.0632935,67.8363037,81.9811401,67.4545898,82.7451172   z M66.2973633,71.4873047c-0.0493164,1.9853516-7.9936523,3.4443359-13.5830078,3.8457031l-0.6787109,0.0009766   c-5.625-0.4023438-13.5693359-1.8613281-13.6191406-3.8466797c-0.0475464-1.9056396,6.371582-3.4418945,11.25-3.9916992v3.6713867   c0,0.2441406,0.1767578,0.453125,0.4179688,0.4931641c0,0,1.0043945,0.1669922,1.9155273,0.2978516l0.7885742-0.0058594   c0.8364258-0.125,1.8408203-0.2919922,1.8408203-0.2919922c0.2412109-0.0400391,0.4179688-0.2490234,0.4179688-0.4931641   v-3.6714478C59.9258423,68.0452881,66.3453369,69.5806885,66.2973633,71.4873047z M52.7143555,66.1455078l-0.7426758,0.0009766   c-0.0444336,0.0009766-4.2753906,0.2177734-6.5693359-1.7978516c0.8383789-2.925293,0.6303711-7.4054565,0.4949341-9.2719116   c1.2461548,0.2745972,3.4714966,0.3307495,5.3561401,0.340271h2.2060547c0.0664063,0,0.1323242,0,0.1992188,0   c1.8429565,0,3.9564209-0.069397,5.1583862-0.3392334c-0.135437,1.8670044-0.3433228,6.3460693,0.4949341,9.270874   C57.0219727,66.3603516,52.7866211,66.1523438,52.7143555,66.1455078z M76.5952148,14.0087891   c-0.2670898,0.4335938-0.5166016,0.7558594-0.5161133,0.7558594L59.3925781,34.9316406   c-0.065918,0.0791016-0.105957,0.1777344-0.1132813,0.28125C58.7871094,41.875,57.8662109,52.1865234,57.3457031,53.2861328   c-0.0712891,0.1494141-0.0629883,0.3251953,0.0209961,0.4677734s0.2338867,0.234375,0.3989258,0.2451172   c0.2666016,0.0175781,0.5585938,0.0732422,0.7788086,0.1328125c-0.9575195,0.1806641-3.0795898,0.2851563-4.9536133,0.2851563   c-0.043457,0-0.0942383-0.0029297-0.1298828,0h-2.2089844c-1.8813477-0.0107422-4.0791016-0.0996094-5.0664063-0.2822266   c0.2202148-0.0654297,0.503418-0.1191406,0.7626953-0.1357422c0.1650391-0.0107422,0.3149414-0.1025391,0.3989258-0.2451172   c0.0839844-0.1435547,0.0922852-0.3183594,0.0209961-0.4677734C46.847168,52.1865234,45.9267578,41.875,45.4350586,35.2128906   c-0.0073242-0.1035156-0.0473633-0.2021484-0.1132813-0.28125L28.6445313,14.7763672   c-0.0063477-0.0087891-0.2568359-0.3320313-0.5263672-0.7685547c-0.4931641-0.7998047-0.2714844-1.828125,0.5048828-2.3417969   c5.7172852-3.7880859,23.5517578-3.8330078,23.7368164-3.8330078c0.1796875,0,18.0136719,0.0449219,23.7314453,3.8330078   C76.8544922,12.1708984,77.0805664,13.2216797,76.5952148,14.0087891z" />
  </g>
</svg>
