<svg xmlns="http://www.w3.org/2000/svg" xmlns:xlink="http://www.w3.org/1999/xlink" version="1.1" x="0px" y="0px"
  viewBox="0 0 100 125" style="enable-background:new 0 0 100 100;" xml:space="preserve">
  <path fill="#f9d10b"
    d="M64.0236816,37.2615433l1.0224609-0.1801758c1.5009766-0.2651367,7.6591797-4.4506836,8.8779297-5.2866211  c0.2041016-0.1401367,0.3261719-0.371582,0.3261719-0.6186523c0-1.4907227-0.4599609-3.0834961-1.75-3.0834961  c-0.9716797,0-5.4570313,1.7861328-7.4501953,2.6005859l-0.4746094-0.5532227  C64.3547363,21.655098,64.989502,14.8328323,68.7102051,9.170723c0.1162109-0.1767578,0.1523438-0.3945313,0.0996094-0.5996094  c-0.0537109-0.2045898-0.1904297-0.3779297-0.3779297-0.4760742c-4.7903442-2.5128179-16.2046509-2.1238408-18.4361572-2.0202031  c-2.2512207-0.1030273-13.6436157-0.489502-18.427124,2.0202031c-0.1875,0.0981445-0.324707,0.2714844-0.3779297,0.4760742  c-0.0532227,0.2050781-0.0170898,0.4228516,0.0991211,0.6000977c3.7202148,5.6606445,4.3549805,12.4824219,4.1342773,20.96875  l-0.4741211,0.5527344c-1.9931641-0.8139648-6.4785156-2.6000977-7.4501953-2.6000977c-1.2900391,0-1.75,1.5927734-1.75,3.0834961  c0,0.2470703,0.1220703,0.4785156,0.3256836,0.6186523c1.2192383,0.8359375,7.3769531,5.0214844,8.8774414,5.2866211  l1.0239258,0.1801758c0.6413574,1.3393555,3.0979614,5.5303345,8.7885132,5.9787598  c0.2125244,0.0982666,0.6433105,0.2921753,1.1875,0.5142212c-0.7289429,0.9205322-1.730896,2.4604492-1.730896,4.0045776  c0,1.3233643,0.77771,2.3848877,1.9000244,3.1065063c-0.9706421,1.585144-1.7086182,4.1708374,0.0459595,6.3988647  l-4.026062,0.5859375c-0.2802734,0.0410156-0.5136719,0.2363281-0.6035156,0.5048828l-1.5957031,4.7890625  c-0.7109375,0.5839844-3.1044922,2.7607422-3.109375,5.5292969c-0.0003662,0.1765747,0.0552368,0.3422241,0.1411133,0.5019531  H34.291748c-2.0449219,0-3.7084961,1.6640625-3.7084961,3.7089844v14.9375l-1.472168,5.234375  c-0.0776367,0.2773438,0.0097656,0.5751953,0.2260742,0.765625c0.1391602,0.1230469,0.3164063,0.1875,0.4960938,0.1875  c0.0981445,0,0.1972656-0.0195313,0.2910156-0.0585938l6.1972656-2.6103516l13.1782227-0.1513672l13.1782227,0.1513672  l6.1972656,2.6103516c0.09375,0.0390625,0.1923828,0.0585938,0.2910156,0.0585938c0.1796875,0,0.3564453-0.0644531,0.4960938-0.1875  c0.2158203-0.1904297,0.3037109-0.4882813,0.2255859-0.765625l-1.4716797-5.234375v-14.9375  c0-2.0449219-1.6630859-3.7089844-3.7080078-3.7089844h-1.6727295c0.1184082-0.2175903,0.168396-0.4561157,0.1053467-0.6933594  c-0.6826172-2.5595703-2.5625-4.734375-3.0654297-5.2822266l-1.6132813-4.8447266  c-0.0898438-0.2685547-0.3232422-0.4638672-0.6035156-0.5048828L53.831665,57.264473  c1.7549438-2.2282715,1.0170288-4.81427,0.0463867-6.3991699c1.1220093-0.7216187,1.8995361-1.78302,1.8995361-3.1062012  c0-1.5483398-0.911438-3.1399536-1.5551147-4.076355c0.4616089-0.1917725,0.8223267-0.3548584,1.0117188-0.4424438  C60.9248047,42.7918777,63.3823242,38.6004105,64.0236816,37.2615433z M49.9998169,43.3966141  c-1.0728149-0.1099243-2.675293-0.6943359-3.7890625-1.1608276c2.0041504-2.0930786,3.682312-2.0594482,3.7484741-2.0616455  c0.0127563,0.0012207,0.0246582-0.0050659,0.0373535-0.0046387c0.0114746,0.0001221,0.0224609,0.0061035,0.0339355,0.0056152  c0.0820313-0.0070801,1.7542114-0.0368042,3.7587891,2.0605469C52.6757202,42.7022171,51.0732422,43.2866898,49.9998169,43.3966141z   M37.2004395,36.3240433c-0.0947266-0.2460938-0.3105469-0.4243164-0.5703125-0.4702148l-1.4165039-0.25  c-0.7602539-0.1337891-4.5693359-2.5102539-7.9462891-4.8115234c0.0439453-0.5166016,0.1640625-1.0239258,0.2910156-1.1933594  c0.7602539,0.1044922,4.2617188,1.4243164,7.3222656,2.6870117c0.2988281,0.1225586,0.6450195,0.0400391,0.855957-0.2055664  l0.9990234-1.1665039c0.1123047-0.1303711,0.1757813-0.2949219,0.1806641-0.4667969  c0.2392578-8.5336914-0.3486328-15.4736328-3.9086914-21.3637695c4.5097656-1.8137212,13.7380981-1.627686,16.4897461-1.5261235  c0.0686646,0.0171509,0.1370239,0.0361938,0.2109375,0.0344238c0.0109253-0.0006104,0.1154175-0.0062256,0.2910767-0.0140991  c0.1763306,0.0079346,0.2810669,0.0134888,0.2919312,0.0140991c0.0719604,0.0015259,0.1389771-0.0175781,0.2063599-0.0342407  c2.7454834-0.1015625,11.980957-0.2893066,16.494812,1.5259404c-3.5605469,5.8911133-4.1484375,12.8310547-3.9091797,21.3637695  c0.0048828,0.171875,0.0683594,0.3369141,0.1806641,0.4672852l1,1.1665039  c0.2099609,0.2460938,0.5566406,0.3261719,0.8554688,0.2050781c3.0605469-1.2626953,6.5615234-2.5825195,7.3222656-2.6870117  c0.1269531,0.1694336,0.2470703,0.6767578,0.2910156,1.1933594c-3.3769531,2.3012695-7.1855469,4.6772461-7.9472656,4.8115234  l-1.4160156,0.25c-0.2587891,0.0458984-0.4746094,0.2241211-0.5693359,0.4702148  c-0.0185547,0.0493164-1.9199219,4.8383789-7.4433594,5.4047852c-2.5578613-3.005188-4.9979248-3.0669556-5.3712158-3.0535278  c-0.4460449-0.0081787-2.8353882,0.1083374-5.3426514,3.0540161C39.1516113,41.1697464,37.2785645,36.5242386,37.2004395,36.3240433  z M66.9162598,72.8845901v15.0410156c0,0.0683594,0.0097656,0.1367188,0.0283203,0.203125l1.078125,3.8359375l-4.8984375-2.0634766  c-0.0898438-0.0371094-0.1855469-0.0576172-0.2822266-0.0585938l-11.9597778-0.1375732  c-0.0682983-0.0175171-0.1365967-0.0369263-0.210144-0.0294189l-1.1723633,0.0134888l-1.1723633-0.0134888  c-0.0844727-0.0095215-0.1610718,0.0088501-0.236084,0.0296631L36.1574707,89.842598  c-0.0966797,0.0009766-0.1923828,0.0214844-0.2822266,0.0585938l-4.8984375,2.0634766l1.0786133-3.8359375  c0.0185547-0.0664063,0.027832-0.1347656,0.027832-0.203125V72.8845901c0-1.2177734,0.9907227-2.2089844,2.2084961-2.2089844  h5.5649414c0.0292969,0,0.0541382-0.0133667,0.0825195-0.0166626c2.2184448,0.4934692,5.6131592,0.7514648,10.1879883,0.7666626  c0.0009766,0,0.0019531,0,0.0029297,0c0.000061,0,0.000061,0,0.0001221,0c0.0152588,0,0.029541,0,0.0447998-0.0009766  c2.7043457-0.1607666,5.7140503-0.4002075,8.1467285-0.7490234h6.3864746  C65.9260254,70.6756058,66.9162598,71.6668167,66.9162598,72.8845901z M58.1254883,69.1756058H57.833252  c-0.1174927,0-0.2250366,0.0324707-0.3240967,0.0806885c-2.1911011,0.2770386-4.8988647,0.5198364-7.4042358,0.6690674  c-5.0999756-0.0184326-10.9528198-0.56073-11.7697144-1.3464355c0.0623779-2.0040894,1.9032593-3.7194214,2.5053711-4.2288818  c1.0552368,0.0272827,5.0495605,0.12146,9.8354492,0.12146c2.6868896,0,5.6184692-0.031311,8.416687-0.1192627  c0.5125122,0.5791016,1.8640137,2.223938,2.4866333,4.1368408C61.020752,68.7168655,59.7503052,68.9548416,58.1254883,69.1756058z   M58.3856812,62.8732986c-6.7579346,0.1908569-14.1292114,0.0560303-16.7699585-0.0050049l1.1999512-3.5999146l4.0723267-0.5927734  h2.7782593h0.6669922h2.7783203l4.0732422,0.5927734L58.3856812,62.8732986z M52.0842285,56.9461136  c-0.0753784,0.0661621-0.1326904,0.1448975-0.1748047,0.2294922H50.333252h-0.6669922h-1.5761719  c-0.0421143-0.0845947-0.0994263-0.1633301-0.1748047-0.2294922c-2.2439575-1.9732666-1.0582886-4.4332886-0.4257202-5.4243774  c0.758606,0.262085,1.5778198,0.4043579,2.3798218,0.4043579c0.0462646,0,0.0864258-0.0183105,0.1303711-0.0263062  c0.0439453,0.0079956,0.0841064,0.0263062,0.1303711,0.0263062c0.8031006,0,1.6235352-0.1425781,2.3829956-0.4053955  C53.1490479,52.5070877,54.3421021,54.9605789,52.0842285,56.9461136z M54.2775879,47.7591019  c0,1.5717773-2.1855469,2.6669922-4.1474609,2.6669922c-0.0462646,0-0.0864258,0.0183105-0.1303711,0.0263062  c-0.0439453-0.0079956-0.0841064-0.0263062-0.1303711-0.0263062c-1.9619141,0-4.1474609-1.0952148-4.1474609-2.6669922  c0-1.2269897,1.0511475-2.6881714,1.7149658-3.449585c0.6154785,0.2075195,1.258728,0.3912354,1.8568115,0.5031738  c0.1113892,0.0655518,0.2340088,0.1134033,0.3725586,0.1134033c0.1066895,0,0.2191162-0.0065308,0.3335571-0.0154419  c0.1143799,0.0089111,0.2268066,0.0154419,0.3334351,0.0154419c0.1384888,0,0.2610474-0.0477905,0.3724365-0.1132813  c0.6689453-0.1251831,1.3942261-0.3403931,2.0732422-0.5773315C53.3742676,45.0418167,54.2775879,46.5252762,54.2775879,47.7591019z  " />
</svg>
